<svg id="6c4c152f-1eee-4ba3-ab18-1d61e042ef98" data-name="Layer 1" xmlns="http://www.w3.org/2000/svg" viewBox="0 0 656.63 651.61"><defs><style>.\34 dbc7cae-cfe1-40dd-8cde-a48379ea238b,.\36 c4a21bc-0a9d-48ed-b8d0-62e3471f33b9{fill:#fff;}.\33 62a913b-abf5-4734-a2b2-78dec41d8cbb,.\34 dbc7cae-cfe1-40dd-8cde-a48379ea238b,.\39 8b46a40-f281-4a01-868c-c92631aec528{stroke:#272b6e;}.\33 62a913b-abf5-4734-a2b2-78dec41d8cbb,.\34 dbc7cae-cfe1-40dd-8cde-a48379ea238b,.\36 610d6cd-b9c1-45dd-a363-4599ce1a274e,.\39 8b46a40-f281-4a01-868c-c92631aec528,.c848e0db-e6c1-45d4-94fc-801bd6acd8de{stroke-miterlimit:10;}.\39 8b46a40-f281-4a01-868c-c92631aec528,.c848e0db-e6c1-45d4-94fc-801bd6acd8de{fill:none;}.\36 610d6cd-b9c1-45dd-a363-4599ce1a274e,.c848e0db-e6c1-45d4-94fc-801bd6acd8de{stroke:#000;}.\36 610d6cd-b9c1-45dd-a363-4599ce1a274e{font-size:39.83px;font-family:YuGothicUI-Semilight, Yu Gothic UI;}.\39 dbe8689-3b60-4527-9db4-5402366f9966{font-size:44.27px;font-family:ArialMT, Arial;}.\33 62a913b-abf5-4734-a2b2-78dec41d8cbb{fill:#272b6e;}</style></defs><title>logo</title><circle class="4dbc7cae-cfe1-40dd-8cde-a48379ea238b" cx="336.16" cy="338.43" r="246.66"/><circle class="c848e0db-e6c1-45d4-94fc-801bd6acd8de" cx="336.67" cy="337.41" r="246.66"/><circle class="98b46a40-f281-4a01-868c-c92631aec528" cx="336.67" cy="337.41" r="246.66"/><text class="6610d6cd-b9c1-45dd-a363-4599ce1a274e" transform="translate(155.98 438.69) rotate(-115.91)">P</text><text class="6610d6cd-b9c1-45dd-a363-4599ce1a274e" transform="translate(146.52 419.71) rotate(-109.19)">H</text><text class="6610d6cd-b9c1-45dd-a363-4599ce1a274e" transform="translate(138 394.11) rotate(-104.12)">I</text><text class="6610d6cd-b9c1-45dd-a363-4599ce1a274e" transform="translate(135.56 385.04) rotate(-100.29)">L</text><text class="6610d6cd-b9c1-45dd-a363-4599ce1a274e" transform="matrix(-0.11, -0.99, 0.99, -0.11, 132.46, 367.28)">I</text><text class="6610d6cd-b9c1-45dd-a363-4599ce1a274e" transform="translate(131.16 358.03) rotate(-92.2)">P</text><text class="6610d6cd-b9c1-45dd-a363-4599ce1a274e" transform="translate(130.31 336.75) rotate(-86.32)">P</text><text class="6610d6cd-b9c1-45dd-a363-4599ce1a274e" transform="translate(131.89 315.37) rotate(-82.07)">I</text><text class="6610d6cd-b9c1-45dd-a363-4599ce1a274e" transform="translate(132.71 306.13) rotate(-76.87)">N</text><text class="6610d6cd-b9c1-45dd-a363-4599ce1a274e" transform="translate(139.33 278.71) rotate(-70.3)">E</text><text class="6610d6cd-b9c1-45dd-a363-4599ce1a274e" transform="translate(145.83 260.44) rotate(-64.84)">S</text><text class="6610d6cd-b9c1-45dd-a363-4599ce1a274e" transform="translate(154.45 242.44) rotate(-60.6)"> </text><text class="6610d6cd-b9c1-45dd-a363-4599ce1a274e" transform="translate(159.64 233.22) rotate(-57.64)"> </text><text class="6610d6cd-b9c1-45dd-a363-4599ce1a274e" transform="translate(165.08 224.34) rotate(-53.59)">F</text><text class="6610d6cd-b9c1-45dd-a363-4599ce1a274e" transform="translate(176.16 209.54) rotate(-49.7)">I</text><text class="6610d6cd-b9c1-45dd-a363-4599ce1a274e" transform="matrix(0.7, -0.71, 0.71, 0.7, 182, 202.24)">R</text><text class="6610d6cd-b9c1-45dd-a363-4599ce1a274e" transform="translate(197.7 186.44) rotate(-39.46)">S</text><text class="6610d6cd-b9c1-45dd-a363-4599ce1a274e" transform="matrix(0.83, -0.56, 0.56, 0.83, 212.69, 174.03)">T</text><text class="6610d6cd-b9c1-45dd-a363-4599ce1a274e" transform="translate(229.4 162.9) rotate(-29.91)"> </text><text class="6610d6cd-b9c1-45dd-a363-4599ce1a274e" transform="translate(238.56 157.62) rotate(-26.96)"> </text><text class="6610d6cd-b9c1-45dd-a363-4599ce1a274e" transform="translate(247.97 152.84) rotate(-24.16)">I</text><text class="6610d6cd-b9c1-45dd-a363-4599ce1a274e" transform="translate(256.22 148.62) rotate(-18.89)">N</text><text class="6610d6cd-b9c1-45dd-a363-4599ce1a274e" transform="translate(282.96 139.68) rotate(-12.2)">S</text><text class="6610d6cd-b9c1-45dd-a363-4599ce1a274e" transform="translate(302.23 135.31) rotate(-5.85)">U</text><text class="6610d6cd-b9c1-45dd-a363-4599ce1a274e" transform="translate(327.91 132.74) rotate(0.8)">R</text><text class="6610d6cd-b9c1-45dd-a363-4599ce1a274e" transform="matrix(0.99, 0.13, -0.13, 0.99, 350.09, 132.93)">A</text><text class="6610d6cd-b9c1-45dd-a363-4599ce1a274e" transform="translate(374.44 135.86) rotate(14.53)">N</text><text class="6610d6cd-b9c1-45dd-a363-4599ce1a274e" transform="translate(401.68 143) rotate(21.73)">C</text><text class="6610d6cd-b9c1-45dd-a363-4599ce1a274e" transform="translate(423.93 151.96) rotate(27.77)">E</text><text class="6610d6cd-b9c1-45dd-a363-4599ce1a274e" transform="translate(441.13 161.18) rotate(31.95)"> </text><text class="6610d6cd-b9c1-45dd-a363-4599ce1a274e" transform="matrix(0.82, 0.57, -0.57, 0.82, 450.08, 166.75)"> </text><text class="6610d6cd-b9c1-45dd-a363-4599ce1a274e" transform="translate(458.75 172.42) rotate(39.73)">C</text><text class="6610d6cd-b9c1-45dd-a363-4599ce1a274e" transform="matrix(0.68, 0.73, -0.73, 0.68, 477.24, 187.49)">O</text><text class="6610d6cd-b9c1-45dd-a363-4599ce1a274e" transform="translate(497.28 208.73) rotate(55.69)">M</text><text class="6610d6cd-b9c1-45dd-a363-4599ce1a274e" transform="matrix(0.45, 0.89, -0.89, 0.45, 515.9, 236.65)">P</text><text class="6610d6cd-b9c1-45dd-a363-4599ce1a274e" transform="translate(525.1 254.5) rotate(69.36)">A</text><text class="6610d6cd-b9c1-45dd-a363-4599ce1a274e" transform="matrix(0.23, 0.97, -0.97, 0.23, 533.9, 277.36)">N</text><text class="6610d6cd-b9c1-45dd-a363-4599ce1a274e" transform="translate(540.21 304.84) rotate(83.57)">Y</text><text class="6610d6cd-b9c1-45dd-a363-4599ce1a274e" transform="matrix(0.06, 1, -1, 0.06, 542.06, 321.58)">,</text><text class="6610d6cd-b9c1-45dd-a363-4599ce1a274e" transform="translate(542.61 329.96) rotate(89.06)"> </text><text class="6610d6cd-b9c1-45dd-a363-4599ce1a274e" transform="translate(542.8 340.52) rotate(91.98)"> </text><text class="6610d6cd-b9c1-45dd-a363-4599ce1a274e" transform="translate(542.42 351.09) rotate(94.76)">I</text><text class="6610d6cd-b9c1-45dd-a363-4599ce1a274e" transform="matrix(-0.17, 0.98, -0.98, -0.17, 542.12, 360.32)">N</text><text class="6610d6cd-b9c1-45dd-a363-4599ce1a274e" transform="matrix(-0.29, 0.96, -0.96, -0.29, 537.17, 388.06)">C</text><text class="6610d6cd-b9c1-45dd-a363-4599ce1a274e" transform="translate(529.77 411.06) rotate(111.64)">.</text><text class="9dbe8689-3b60-4527-9db4-5402366f9966" transform="matrix(0.99, 0.15, -0.15, 0.99, 287.41, 571.29)">1</text><text class="9dbe8689-3b60-4527-9db4-5402366f9966" transform="translate(314.05 575.19) rotate(1.84)">9</text><text class="9dbe8689-3b60-4527-9db4-5402366f9966" transform="matrix(1, -0.09, 0.09, 1, 340.97, 575.92)">0</text><text class="9dbe8689-3b60-4527-9db4-5402366f9966" transform="matrix(0.98, -0.2, 0.2, 0.98, 367.8, 573.46)">6</text><circle class="98b46a40-f281-4a01-868c-c92631aec528" cx="336.16" cy="338.43" r="195.34"/><circle class="362a913b-abf5-4734-a2b2-78dec41d8cbb" cx="336.16" cy="338.43" r="190.74"/><circle cx="410.97" cy="549.6" r="4.6"/><circle cx="270.02" cy="549.6" r="4.6"/><path id="74122929-0ed3-4b70-8c39-741246fce4d4" data-name="PH-SUR" class="6c4a21bc-0a9d-48ed-b8d0-62e3471f33b9" d="M341.2,291.15l.71.49.21.09-.29.27-.53-.14-.6.35,0,.36.52.53.32-.14.38.72.64-.31-.11-.37.36-.23,0,.54-.4.28.38.69.77,1.59-.3,0,1,.76,1.59-.52,1.13-1.18.88,0-.36.43.14.41-.54,1.55.13,1-.47,1.31.71.66.17-.35.92,1.58.88.9.3.11.42.47.07.49-.45.21.79.17-.41.87.63.92-.45.08.27.27-.61.45.06.49-1.12.25-.36.23,0,.51-.57.2v.46l.74.37-1.31-.06L345.45,310l-.51.89,1,.66-.26.39.68.82.45,0-.08-.24,1.34.42.14-.21-.88-.4.5-.19,1.21.17.61.49.58-.22.53.2.38-.42.21.26-.25.42.89.05.13.55-.31.23.32.34-.78-.11-.34,1,.58-.05.16.48-.55.93-.85.3.42.51-.24.09.07.37,1,.09.31.41-1.7,1.47.67,1,1.05-.45,1.13-1,.38.06-.64,3,.54.33-.84,1,.17.94-.37.09.21.57.77-.08-1,.78h-.44l-.61,1h0l-.22-2.08h0l-.12-1.15-1-.32,1.37-1.32-1.51.16-1.39-1.32-.59-.09.33-1.17,1.15-1.31h.43v-.54l-.53-.67.27-1.45-.46.67-1.81.11-1.85-.22-.87-.85,1.1-1.22-1.51.14-.39-2.38-.57,0-.05-.33-.11-1.46.53-.36-.08-.27-1-1.47-.52-1.79-1.12-1.28-.45-4.44-1-1.72-1.81-2.08h0l-.17-2.05h0l3.87-3.91h0v.45Z" transform="translate(86.33 89.24)"/><path id="5ea481fe-da2a-4a84-80be-92176fd7233b" data-name="PH-TAR" class="6c4a21bc-0a9d-48ed-b8d0-62e3471f33b9" d="M220.56,143.85l.94,4,1,1,1.3.36-.73,1.3,1,3.09-.51.82-.07,1,1,.74-.23.91h0l-.64.1-.06-.39-1,.53-.93-.33-.44.29h-1.48l-4.2,2.22-.41-.07h0l-.76-1.51-1.18-1.33-2.78-1.67.52-3.45.82-1.6.94-.55-.22-.45h0l1.59-.74-.16-.43.8-.69.15-.76.78-.84,2,.84,1.52-1,.91-2.78Z" transform="translate(86.33 89.24)"/><path id="d01af7bf-a7a1-4de7-9caf-88be6c7b6934" data-name="PH-TAW" class="6c4a21bc-0a9d-48ed-b8d0-62e3471f33b9" d="M193.46,398.41l-.45,2.2-.18-.79.33-.59-.44-.37.76-1Zm9.23-1.33.92.63-1.18,0-.17-.44.43-.14ZM194.26,395l.88,1.77.28,1.71-.57,2.08-.52.6.15-3.37-.48-2.53.26-.26Zm7.87-.26,1.14.59v.8l-1.13.16-.31-1.34Zm4.93-1.92-.28,1.08-.45.09.08-1.09.65-.08Zm-5.49-.48-.13.43-.8-.06.1-.44.83.07Zm7.82,0,.36.21-.07.36-.81-.64.52.07Zm2.32.1-.22.21-.66-.18.55-.49.44.24-.11.22Zm-9.4-2.12.16,1.35-.36.17-.23-.3-.13.52-1,.15.61-1.43.94-.46Zm11.36-.11.2.46-.37.27-.8-.05,1-.68Zm.82-.55-.18.61-.35-.12,0-.68.36-.16.12.35Zm-.81-1.08-.81.48-.14-.32-.48.11.52-1.64.88.76,0,.61Zm1.17-1.41-.48,1.68-.21-.92Zm-3.44-2.07.11,1.07.88.58-.53,1,.2,1.16-.47.8.11.51-1.31-.46.62-.88-.54-.23-.26.68-.82-.52-.56.81-.24-.22-.28-.17-.34.13-.06-.4-.39,0-1,.6.1.53-.21.2-.68,1-.69-.24-.94.54-.19.1-.46.29-.92-.2.11-1.25-.32-.32.43-.55.63.06,1.9-1,.86-1.09,1.15.11.91-.87.17-.23,2.15-1.42.88-.14Zm2.43-.85.39.11-.53.38-.54-.15Zm6.32-.33-.55-.27.22-.56.6.52Z" transform="translate(86.33 89.24)"/><path id="b3a54338-af4e-4f2c-b497-aac600c471df" data-name="PH-ZMB" class="6c4a21bc-0a9d-48ed-b8d0-62e3471f33b9" d="M204.09,144.45l.56.28.83-.37.22.42h.72l.86-1.24,1.29.81L210,144l.85,2.28,1.54,2.54h0l.22.45-.94.55-.82,1.61-.52,3.44,2.78,1.67,1.18,1.34.76,1.51h0l-.28.74.17.71.88.64.4.8,0,1.24.71.65.21.79h0l-.57,1.11-1.36-.21-.4,1-1.27,1-.17.13,0-.38-.59-.09-.09-.6-.55,0-.44-.7-.52.28.28,1.17-.8,1.76-1.44-.5.46-.1-.34-.39-.84-.1.6-.81-.68.18.11-.92h-.31l0-.58-.46-.41.32-2.82-.27-2-1-3.1.11-.76-.63-.77-.53-.62,0-.49-.85-.9.2-.13-.73-.22,0-.4-.4-.32.62-.41-.36-.54.09-.52.31.39.54,0,.08-.45.5-.25-.72-1.12.27-.4-.47,0,0,.37-.28-.1.18-.83-.47-.62.48-.52.2-1.15-.38-.32-.38.12-.72-.79.93-.47-.49-1.21Z" transform="translate(86.33 89.24)"/><path id="6ccc743c-e782-45ec-b98c-4716b7d81308" data-name="PH-ZAN" class="6c4a21bc-0a9d-48ed-b8d0-62e3471f33b9" d="M283.77,308.26l1,.25.36.75,1.13-.41.15.43-.51.58.07.33.54.47.5-.23,0,.28.43,0h0l-.12,9.27h0l-3.8,0-.77-.39-3.36-.17-.17,3-.6,1.25V325l-2-.06L274,326.81l-1.06-.1h0l-3.7-.57-2.05.32-2.53,1.19-2.28,1.89-2.13,1-1.86,2.75-1.05,2.25-.25,1.57h0L256,339.32l-.07,2.07-.46,1.25-1.68,1.59-3.88.08h0L251.5,342l.76-.3.12-.39,1.16-.36,0-.43-.63-.29-.17-.73.62-1-.05-1.07.81-1.12-.38-.63.64,0,.94-1.12-.18-.35-.28.18-.4-.33.66-1v-.63l-.42-1.25-.71-.32.41-.6.2.32.28-.19-.1-.46,0-.54.47-.13.42-1.19,1.5-1.14v-1.19L260,324l2.65-.77,1.1.16,1.67-.41,1-.69.75-1.12.56.95.77.2,2.12-.2,1-.6h1.21l1.9-1.54,0-.82-.64-.25-.69-1.06,1.06-.46-.07-2,.65-.32.51-1.42.75-.57,2.7-.41,2,.48.68-.16.71-1,.45-1.65.46-.19.5.42.5-.18.13-.67-.51-.29-.09-.2-.35-.47v-.5Z" transform="translate(86.33 89.24)"/><path id="b270d8b8-a3ef-43f2-ab74-369e738277bd" data-name="PH-ZSI" class="6c4a21bc-0a9d-48ed-b8d0-62e3471f33b9" d="M258.27,347.66l.19.23-.15.71-1-.16.16.33-.86.7.34-.86-.18-.21.38-.47.43.18.67-.45Zm15.15-9.15.21-.17-.37-.43-.7-.33-.28.33.09,1.1-.29.22-.94-1.49-.79.28-.34,1.75.51.18-.1.94.58.44.36-.7,1.2-.26.44-.66.7.23-.57-.74,1.15.19-.86-.88Zm3.37-9.33-3.86-.49v-2l-3.7-.56-2.05.31-2.53,1.19-2.28,1.89-2.13,1-1.86,2.76-1.05,2.24-.25,1.57L256,339.32l-.07,2.07-.46,1.25-1.68,1.6-3.88.08-.09,1.57.92,2.57,3.88,1.74,1-.44.14-.36.65-.67.62-1.92,0-.27-.18-.47,1.18-1,0-.41-.35,0L258,344l-.31-.68.42-.12-.06-.21.1-.53.3-.09.24-2.05.63-.35.24.17-.07.51.34-.16,1.2-1.74L260,338.6l.29-1.49,0,0,1.07-.57.43-.32.59-.7.43-.1.4,0,.05-.55.43-.4-1.24.28-.4-.11-.06-.35,1.34-1-.17-.47.62-.87.36-.06.4-1,1.74-.55.11-.39.36.13.4-.41.33.52.46-.51.59.11.59.78.52-.3,1,.41.17.71-.46-.28-.06.48-.35.67.32.84-.22.53,0,.52.53.28.24.92-.23.39-.31-.53-.23.15-.21,1.19,0,.38.43-.43.42.24-.09,1,.42-.28.21.24.75-.65v-.51l-.43-.2.65-.31.1-.7.32-.11.39.17.68,1.31.51-.17.44.68.27-.5-.17-.47.89-1.79-.2-1.09h.71l-.1-.6.16-.18,0-.43.51.07.3-.65-.27-2.41Z" transform="translate(86.33 89.24)"/><path id="f07e82af-e61f-4535-85b3-2b8a7aebd577" data-name="PH-ABR" class="6c4a21bc-0a9d-48ed-b8d0-62e3471f33b9" d="M227.73,93.16l1.35.91.52,2.28,1.28-.1.76.56.52,3.33h0l-.71.41.64,1.84-.22.67-2.55,1.65-.08,2-1.81,3.81h0v.81l-.4.54-.9.06h-1.35l-.95.71-1.41-.06-.63-.79.33-.12,0-1.34L220.6,109l-1.28.07-.44-1.18.91-1.73.15-1.08-1.37-.56-1,.44-.35-.49.46-1,.34-2.25.74-1.52h0l1.07-2.26,2.46-.85.85-1.38,1.27-.44,1.13-1.15,1.75.22Z" transform="translate(86.33 89.24)"/><path id="1fe6be26-1d95-4f8b-a899-45764f9b00f9" data-name="PH-AGN" class="6c4a21bc-0a9d-48ed-b8d0-62e3471f33b9" d="M330.62,292l.84-.37,1.64-.06,2.84.52,1.22,1,.17,1.52h0l.16,2h0l.28,1.64-.47,2.08-1.16,2-.58,1.75,0,1-.72,1.29.79,2.53-4-.06-1.35.93-4.44,0h0l-.24-4.48.54-.43-.82-1.13.38-.77L325,299.9h0l.32.12.4,1.29.95.88,1.19,0v.49l.19-.48,2,.33,2.1-.92-.19-.28.54-1-.36-1.59.25-1.2-.58-1.16v-1.15l-1-2Z" transform="translate(86.33 89.24)"/><path id="03d34e1d-6b39-4554-b15d-5b5ab8072428" data-name="PH-AGS" class="6c4a21bc-0a9d-48ed-b8d0-62e3471f33b9" d="M337.49,296.63l1.81,2.09,1,1.72.45,4.44,1.12,1.29.52,1.78,1,1.47.08.27-.53.36.11,1.46.05.33.57.05.39,2.38,1.51-.15-1.1,1.22.87.86,1.85.22,1.81-.12.46-.66-.27,1.45.53.66v.55h-.43l-1.15,1.31-.32,1.17.59.08,1.38,1.32,1.51-.15-1.36,1.32,1,.32.13,1.15h0l-4.29,0h0l-2.14.93-.52.55-1.08-.63-.39-.81h-6.95l-6.68.28h0l-.14-.91.28-1.18-.44-.52.09-1.2-.45-.95.25-1-.44-.31-.3-1.14-1.21-.83-.38-.77-.38-4.82h0l-.05-1.78h0l4.44,0,1.35-.93,4,.06-.79-2.53.72-1.29,0-1,.58-1.75,1.16-2,.47-2.08Z" transform="translate(86.33 89.24)"/><path id="4fd5c769-1917-4223-8877-ecb0f30cf0be" data-name="PH-AKL" class="6c4a21bc-0a9d-48ed-b8d0-62e3471f33b9" d="M251.16,234.53l2.77,2.29,1.9.27.77.43.56-.15.38.63.44-.19,1.16,1.39.72,0,.52,0-.19.61.64-.33.79,1.34,1.74,1.43-.3.24-1.52-1.53-.62.24.73.63,0,.72.5.1.14-.47.27.66-.4,0,.2.53.66,0,.33-.94,1,.38.62.28-.64.21.86.15h0v.38l-1.47,1.26-2.64,0-.56,1-.46-.11-.43,1.27L259,248l-.63.5-1.7.45h0l-.4-.69.19-1-.5-.28-.08-1-.69-.75.45-1.38-.33-.57.23-.88-.2-1.12.84-1.72-.37-.9-4-1.61-1.21.16-1,1-1,.41h0l.83-1.22.1-1.94,1.37-.39.31-.48Zm-.81-1.43.15.79.42.24-.17.35-.8-1.13.4-.25Z" transform="translate(86.33 89.24)"/><path id="52613ec7-8e05-4e20-87ad-1b4537b12ce7" data-name="PH-ALB" class="6c4a21bc-0a9d-48ed-b8d0-62e3471f33b9" d="M300.52,204.46l1.69.56.31.84-2.55-.27-1.06-.46,1.61-.67Zm-3.46-1,.18.47.42-.63.59.66.35-.47,1.24.48-.75.16.11.33-1.1.5-.67-.23,0-.28-.94.1-.82-.7.15-.33-.3-.2,1.4.15Zm-2.79-1.7,1.73.61-1,1.09.58,1-.6.34-.28,0-.05-.71-.23,0-.47-.43.52-1-.5-.48.33-.41Zm-2-1.24.94.3.45.59h.56l-.38.59-.8-.47-.77-1ZM288.6,198l.45.55,1.19.32,1.58,3.62,1.54.77.4.5.8.62-.13.38-1.36-.31-.61.23L292,206l.05.55.66.71-.22.57h-.56l.32.34-.29.22,1.14.41.76-.83.06-.63.4,0,.14-.6.37-.18,1.39.58h0l-.8,1.79h-1.07l-2,1.27-.79-.89-1.44,0-.94.36-1.25-.48-2.13,1h0l-.65-.84-1-.49-1.94.94-.53-1.13h-.36l.31-.67-.17-1.48.5-.45-.14-.47.53-.24-1.17-1.5h0l2.53-1.83.37.23v-.33l.68-.39.58-.18.65.23,2.15-.86.09-1-1-1.48.25-.34,1.07-.1h0l.08.18Z" transform="translate(86.33 89.24)"/><path id="4dc3ee96-47be-4b91-9ccb-d69cee49f52a" data-name="PH-ANT" class="6c4a21bc-0a9d-48ed-b8d0-62e3471f33b9" d="M248.55,238.56l1-.4,1-.95,1.21-.16,4,1.61.38.9-.85,1.71.2,1.13-.22.87.33.58-.46,1.37.7.76.08,1,.49.28-.19,1,.41.7h0l0,2.25.2-.12.12,1.09.53.75h0l1.85,2.56-.16,1.63.24.55-.65.15-.36.81-.41-.06L256.67,260l-.58,1.79-2.31,1.52-.91,1.52-.28,1.14-.23,1.85.06.45.36.17h0l-1.57,1.4-1.12-.93.06-1.34,1-1.07.46-2.67-.29-1.11-1-1.1.61-1.06.77-2.77,1.59-2.35-.48-3.64.45-.8,0-.86-.56-.88.7-1-.13-2.88.51-.24.25-.54-.17-.94.54-2.4,0-1.36-.82-.85-.44.24-2.88-.82-.75.26-.93-.14Zm-9.3-2.42,1.78.13.41.39-.36.43-1.78-.37-.51.19.46-.77ZM242,234l.52.57.12.69-.68.34-.3-.28,0-1.07L242,234Zm-4.56-3.62.74.11.54,1.65.39.24-.87,1.09-.75-1.63.58-.36-.86-.41Z" transform="translate(86.33 89.24)"/><path id="9b4cd9d7-3b92-4fed-94dd-7cc8a611d2af" data-name="PH-APA" class="6c4a21bc-0a9d-48ed-b8d0-62e3471f33b9" d="M228.48,82l1-.47.82-.93.1-.55.94-.28.1,1.31L235,82.39l.83,1,.75,0L240,85.31l.52,2-.65,4.18-1,.46-2.05,4.86-.39.23,1.57.55,1.24,1.38.26,1.08h0l-1,.6-.22.55-3.08-.7-.6,1.11-2.38-1.42h0l-.52-3.33-.76-.56-1.28.1-.52-2.28-1.35-.91h0l.28-.45-.09-2.45.9-1.6-.39-.75-.38-4Z" transform="translate(86.33 89.24)"/><path id="46627c0b-67ab-4a2f-8ef1-fb37e33d57ed" data-name="PH-AUR" class="6c4a21bc-0a9d-48ed-b8d0-62e3471f33b9" d="M258,127.74l-.36.23-.35,1.15-.66.55.54,1.07.38-1,.09.22-.43,1.51-.75.51-.27.74.35.32,1-.53-.72,1,0,.65-3.08,2.84.06.69-.93,1-1,.49.86-1.77,1.5-1.5,0-.85.77-.5.05-.84-.85-.06-.51.52-.17.59.33.63-1.35.24L250.65,137l-1.49.1-2.07,1.4-.45-.35-.42.19-1.74,1.5-.32.82-.54.1v.35L242,142.3l0,2.61.42.84.63-.26.86.32,0,1.05-.66-.06,0,.53.05.31.06.54-.75.37-1.21,2-.84.5-.41,2.5-.48.15-.51,1.1-.63-.49-.45.46-.25,1.23,1,2.28h0l-.42.34.07.49-.52.17.42.4,0,.69-1.28,1.92.22.58-.22.51h0l-.69-4.73h0l1.47-6.66-2.15-6.73h0l4.23-3.43h0l8.36-7.32,5.22-6.12,1.52-1h0l3.19.15h0l-.28.15Z" transform="translate(86.33 89.24)"/><path id="9af77eda-3576-4192-b457-6ef370e6f2de" data-name="PH-BAN" class="6c4a21bc-0a9d-48ed-b8d0-62e3471f33b9" d="M217.1,165l.84.43.13,1,.5.64.61.38.59-.16h0l.09.38h-.57l0,.62-.26,0v1.5l.8,1.76-.08.84.5,1.75.27.13-.09,1.28-1,1.3-1.68-.27.23.67-.69-.19-.53-.75-.49.13-.05-.29-.76-.14-.34-1.53.36-.28-.21-.27.28-.91-.59-.91-.43.16-.36-.39-.45.25v-.33l-.25.13-1.21-1.35.13-1,.57,0-.86-.59.89-.45-.55-.19.22-.31.65,0h0l1.45-1.14.4-1,1.36.21.57-1.12Z" transform="translate(86.33 89.24)"/><path id="175bc6e7-d4f9-414a-be3a-c0a8c64ecca9" data-name="PH-BTG" class="6c4a21bc-0a9d-48ed-b8d0-62e3471f33b9" d="M231.31,196.62l.32.92-.42.19-.88-1,.43.19Zm-5.81-2.68.65.56,1.58.16.43.45-.94.33-.73-.23-.73-.38-.26-.89Zm-5.33-12.61.59.21h0l1.36.45-.21.56.77.84,1.34.08,1.65,1.15.15.65.91-.58.36.18,1.29-.35,2.14-1.21-.18-.21h0l1.47-.06,2,.57.5,2.44.6.91.42-.07v.63h0l.1.58-.48,0-.15.37.79,1.11,2.19.16.34.48,1.65.68h0l-.55,1.36.39,1-.14.57.36-.1.23.38-1,.68-.89-.31-2.23,1.66h-.58l-.61-.7H234l-.43-.39-2.38.59-1-.34.39-.76.18-1.26-.23-.39-.35-.64-.8-.4-.84.23-1.61,2.08-.45-.86,1.23-1-.58-1.39.3-.2-.07-1.08-.71-.56-2.06-.62-1.09-.2-.8.36-.22.66.57.8-.1.39-1.48-.45,0,.71.56.95-.42.49-.81-1,.2-.27-.29-.27,0-2.75-.38-.48.64-.06-.38-1.32.23-.52-.09-1.42-1.2-.5.45-.16.52,0-.84-.59.91-.17-.68-.36.28-.85Z" transform="translate(86.33 89.24)"/><path id="ac49cf68-0373-48e1-8340-5d53f69f1d4a" data-name="PH-BEN" class="6c4a21bc-0a9d-48ed-b8d0-62e3471f33b9" d="M224.26,117.87l1.57,1.47.24.81.55.26h0l.45,1.12.14,4.35h0l-.49,2.12.18,1.69-1.05,2.66-.9,0-1.06,1.89.22,1h0l-2.58.32-3.25-1.16h0l-1-6.13.62-1,1.41-1.32-.38-.25.88-1.22h0l.9-1.68.53-3.9.64-.35,1.63-.07Z" transform="translate(86.33 89.24)"/><path id="5d9ae6ec-f46e-4556-956e-009171587301" data-name="PH-BIL" class="6c4a21bc-0a9d-48ed-b8d0-62e3471f33b9" d="M307.28,239.84l.91,0,1.6.69,1,2.46.78.58-.26,1.27-.64.37-1.49.08-.19-.24-.54.38-.86-.57-.45-1.22-.37.1-.34-.54.1-.82-.89-1.12.09-.33-.35-.29.66-.54,1.19-.3Zm-2.37-2.46.63.25-.05.68-.53.32-.74-.67.69-.58Z" transform="translate(86.33 89.24)"/><path id="f187306e-b299-4a0b-a5cf-eed8553e4831" data-name="PH-BOH" class="6c4a21bc-0a9d-48ed-b8d0-62e3471f33b9" d="M293.88,287.27l.79.42-.05.49-1.61,1.2-1.05.12-.14-.67-.65-.27,2.71-1.29Zm-1.4-5.64.38.1-.61.57-.14-.66Zm1.1-.48.87.09-.6.5-.62-.49.35-.1Zm18-5.54-.64,1,.31-.06,0,.59-1-.09-.18.84h-.39l-.18-.6.28-.48-.32.1v-.47l.62.1.07-.44.45.49.12-.64.27-.16.57-.14Zm-7.42-.48,1.12.78,0,.57.63-.91.53.55,0,.56.5.09,1.46,1.05.56-.46,1,.83.34,1-.38.12.21,1.38-.39.16.89.24-.39.91-1,.52,1.89,1-.15,1.19-.44.48-1.16.24-.52-.92-.28,0-.85.9-.89.27-.21,1.31-3.21,1.25-1.62-.27-2.92.48-4.65-1.09-.21-.71.58-1.15-.16-.15-.55-.4-1.17,0-.06-1.23.48-.92-.42-.33,0-.36.62.19-.13.32.59-.46.09-.52.73-.28-.13-.35.33-.4.25.38,1.56-1,1.49-.26.4-.48.42-1.82.83,0,1.23-2,2.86,0,.29-.42Zm-2.42-.1.18.14-.33.4-.42-.22.57-.32Zm1.72-.67-.56.66h-.67l-.2-.21Zm-2-.12.34.36-.79.14Z" transform="translate(86.33 89.24)"/><path id="b80fa060-c9ae-449f-8a2a-14eec66fefe5" data-name="PH-BUK" class="6c4a21bc-0a9d-48ed-b8d0-62e3471f33b9" d="M310.43,319.49l.39-.67-.09-.74.28.14.31-.34-.13-.86.37-.56.06-1.3,4.52.06-.05-1.19,1.23-2.74,3.67.34,4.89-.05h0l.38,4.82.38.77,1.21.83.3,1.14.44.31-.25,1,.45.95-.09,1.2.44.52-.28,1.18.14.91h0l.89,1.68-.08,2.16.58,1.2-.27,2.49-.8.78-.67-.39-1,.24-.46-.48-1.1.12,0,1.46h0l-.72-.28-.05.48-.53,0-.63,1.12-.24,1.31-2,.31-.42,1-1.72.12-1-.72-1.1.38,0-.39-.87-.42v-.65l-.51-.37-.66.35.26-.84.58-.55-.42-1.42h0l-.1-.44-1.11-.69v-.61l-.55-.48,0-1-.43-.23-1.09-1.87-.67-.24-.32-.56.16-.45-.59-.33-.93-1.8-.56-2.47-.85-1h0l1.48-.48.33-.62-.33-.54Z" transform="translate(86.33 89.24)"/><path id="6ae69149-f292-4de3-8d91-e0c104479d0a" data-name="PH-BUL" class="6c4a21bc-0a9d-48ed-b8d0-62e3471f33b9" d="M228.35,158.25l1.5-.8,2.79-.47,2.21,1.6,1.6.11h0l.69,4.73h0l.08,2.46h0l-2,1.19-1.73.34-.11.53L232,169h0l-.91-.1-.32-.4-.33.1-.09.49-.76.19h0l-.08.08h0l-.33.75-.44.07-.09-.44-.43-.18-.28.13.51,1-.29.15-.39-.49-.25.24h0l-.42-.49-.29.08-1-.74,0-.59-.34-.12-.17-.16-.39.55-1,0-.39-.17-1.26-.17-.13-.28.71-.41-.1-.44,1-1.61,0-.74,2-.18,1.46-1.18-.06-.61.47-.1.07.3.4-1,.64,0,.07-1,.38-.53-1-1.24.3-.49,0-1Z" transform="translate(86.33 89.24)"/><path id="f88460e8-21b5-4e01-8bdb-31b03dc8cdac" data-name="PH-CAG" class="6c4a21bc-0a9d-48ed-b8d0-62e3471f33b9" d="M255.16,78.78l.53.06-.08,1.37-.89.52.25-1.09-.34-.06,0-.34.5-.46Zm-23-1.09,1.66.47,2.42,1.94,2,1,.41.17.17.46.84.12,3.48,2,6.47,2.4.2.23,2.49-.65,1.81-1.63.22-.63.67,0-.12-1,.51-2,.43-.34,1.58.12.32,1.6,1.46,1.37.57,2L259,87.46l-.9,1.16L257,89l-1.14,1.65.05.42.38.11-.25.65.36.38-.28,1.57.16.18.09,1-.59.58.14.76-.45.24.17.44-.45.56.16,1.29.55,1-.28.39.25.31-.1,1.37.63,1.5h0l-7.71.31-.69.41-3.75.23h0l-4-3.9-.89.15.06-.56h0l-.26-1.08-1.25-1.38L236.35,97l.4-.23,2.05-4.86,1-.46.65-4.18-.51-2-3.38-1.91-.75,0-.83-1-3.63-1.32-.09-1.31-1,.28-.09.55-.83.93-1,.47h0l.26-3.21h0l1.4-.91.56.31.73-.17.13-.28.64,0Z" transform="translate(86.33 89.24)"/><path id="d0a38a2a-6172-497e-acf8-9d9295cfa309" data-name="PH-CAN" class="6c4a21bc-0a9d-48ed-b8d0-62e3471f33b9" d="M264,178.66l2,.71-.3.26.53.33.25.1.39.18-.24-.32.26-.56.35.33.64.4-.57-1.27.44-.16.63.14.19.64.63-.39.92.4L270,180l.48.05.44-.05.86.35,1.14,1.19,0,.12,0,.49.53.07,1.15,1.56.58.27.23,0,.44.33.11.71-.37.09-.05.71.61,1,.61.26.27,2.08-.3.48-.34-.05-.19.86h0l-2.67-2.16-3.39-2h0l-7.93-3.13-1.74,2-1.46-.07,0-.34h0l.22-.5.68-.3.18-.15,0-.41-.24-.33-.1-1,.3-.28.07-.37.76.25-.53-.77.46-.22.12-.68.56.05.15-.7.33.34.88-.93.33.28.31-.23.3-.16Zm9.6-2.13.79.7-.56,0-.69-.59Zm.17-1.33.23,0-.32.32.23.22-.41.09.09.34-1,.1,1.15-1.1Z" transform="translate(86.33 89.24)"/><path id="dbd58e04-2f38-468f-bd37-97fbcd63b174" data-name="PH-CAS" class="6c4a21bc-0a9d-48ed-b8d0-62e3471f33b9" d="M293.52,187.27l.43.13-.2,1.86L293.2,188l.32-.73Zm-4-.06.39.41.2-.13.17.53-1.21.83-.55-.16.07-1.08.34.48.36-.58.52.46-.29-.76Zm-6.89-3,.4.65-.1.52.43.31-.49.06-.22.58.47.1.55-.6-.12.63.35-.07.16.31-.26.25.51.06-.18.93.49.43.32.18.28-.34-.25-.16.07-.71,1.22.68-.28.66.61-.41.1.37.5.13,0-.56.66.38.21.05.44.5.94.25.46-.26.36.37.79-.13-.28-.19.35-.72-.22-.48.52.53.27.63.39.67.5.09-.13.23.61.09,1,.84.46-.35.73.69h1l.16,1,.48,0v1.08l-.11-.41-.62-.21-.1.38-1.35-.43-.84.93-.77.23-1.19-.54-1.73-.23-.38.33-2.21-.68.22.43.32-.14-.76,1.12-.36,1.26.24.4.16.05-.47.82.37.33.45-.24.37.2.39.71h0l-1.07.1-.25.35,1,1.48-.09,1-2.14.86-.65-.23-.58.18-.69.38,0,.34-.37-.23-2.54,1.83h0l-.84-.66-.65-1.3-.07-1.16-.42-.88-3.2-1.72-.28.16-.77-.49-.6,0-.61-.67-1.39-.62L271,195.1l-.77-.26.58,0,.85-.94-.58-1-1.45-1-.52-.33-.52-.69L268,191l-.48-.3v.47l-.6-.3-.37-.43.31-.3-.24-.73-1.43-.53.18-.47-.69.1.31-.28-.46-.36h0l5.56-1.52h0l3.39,2,2.67,2.16h0l-.3,1.41,1.75,1.16,2.51-.09,1-.48,1-1.18.08-.59-1-1.61,1.1-1,.2-.76-.36.43-.3.54-.4.08-.78-.5.11-.32-.74-.13-.11-.71.83-.32-.72-.34,1.25-.12-.72-1h.48l.93.88-.21-.77.87,0-.41-.52.31-.33Zm-1-.55.63.41-.22.51-.63-.77.22-.15Z" transform="translate(86.33 89.24)"/><path id="e7f06746-d6cd-452d-a517-d62238a0e037" data-name="PH-CAM" class="6c4a21bc-0a9d-48ed-b8d0-62e3471f33b9" d="M313.73,296.13l1.56,1.22.45,1.31-.16.35.35.23-.71.94-.74-.52-1.51-.37-.94-1.16.17-1.45Z" transform="translate(86.33 89.24)"/><path id="46a562b5-94b4-467b-9c8e-ee7db28823c5" data-name="PH-CAP" class="6c4a21bc-0a9d-48ed-b8d0-62e3471f33b9" d="M268.38,242l1.75.1,0,.3.76-.35.07.33.61.66.18.26-.22.5.26-.12.24-.12,1.21.66-.34.3-.14.1-.61.24.18.48-.67.31.78.71.19-.27.24-.4L273,245l.4.17.16-.09,1.07-.08,2.44-1.41h0L276,245.76V247l-.78.37-.86,0-.93.54.26,1.24-1.33.63v.93l-.36-.09-.51,1.14-1.59.23,0-.86-.46-.21-2.55.38-.56-.55.52-.66-.34-.07-.94,1-.37-.24,0-.4-.41.27-.27.82-1.23.55-.95-.33-1.42,0-1.56-.81-1.9,2h0l-.53-.74-.12-1.1-.19.13,0-2.25h0l1.7-.46L259,248l.65-.71.43-1.28.46.11.56-1,2.64,0,1.47-1.26v-.38l.32.42v.34h.83l.65-.43-.49-.23.34-.64.23.74.26,0,.3-.07-.11-.43,1-.34-.2-.41-.19-.24.24-.09Z" transform="translate(86.33 89.24)"/><path id="a05fceec-1f6b-43e2-b48a-c2eff30b2c19" data-name="PH-CAT" class="6c4a21bc-0a9d-48ed-b8d0-62e3471f33b9" d="M305.19,187.38l.46.57L305,188l-.39-.9.38.16-.06.29L305,187l.2.38Zm-2.89-3,1.46,1.92.31,1.7.67.22-.12.93L305,189l.12-.77.57-.17.07.79.62.3.09.5.16-.65.05.53.12-.24.27.47-.34.15.49.31-.5.26H307l-.12.5.36.41-.17.32-.57.06.39.64-.36.06-.22.79.71,1.2-.87.48v-.43l-.28.07-.54.45.2,1L305,197l.42.19-.63-.07-.06-.78-.62-.18.17-.27-1.83.92-.15,1.14-.83-.35L300,196.19l-1.37-.23.36-.34-.92-1.07,1.63-1,.93-2.11-.18-2.07.46-1-.46-1.17-.05-.59.31-.29-.3-1.07,1,.22.83-1.11Z" transform="translate(86.33 89.24)"/><path id="115b5010-aa10-42dc-8420-5a5a9bb714f1" data-name="PH-CAV" class="6c4a21bc-0a9d-48ed-b8d0-62e3471f33b9" d="M227.37,175l-.2.36-.1.16-.23.62.38-.18.19.24.1-.3,1.17-.31h0l0,.65,1,1.54v.73h0l-.09.89L231,179l-.8,1.89.4.13-.44.85.3.08-.1,1.12h0l.18.22-2.14,1.2-1.29.36-.36-.18-.9.57-.15-.64L224,183.47l-1.34-.07-.77-.84.22-.57-1.37-.44h0l0-1.06.74-.46.86.12.47-.34.38-.43.87-.43,2.29-2.29.53-1.42.44-.21Z" transform="translate(86.33 89.24)"/><path id="9a8d56c1-fc97-41cf-b976-df98b77c33ec" data-name="PH-CEB" class="6c4a21bc-0a9d-48ed-b8d0-62e3471f33b9" d="M299.24,272.5l-.4,1.14-.29-.09-.19-.28Zm-1.92-1.07.43.49.88-.46-1.42,1.72-.36,0-.55.38-.23-.32.55-.41-.09-.2-.21,0-.31.18.14-.68,1.17-.66Zm10.24-8.81,1.6.87.12.56-1.63.65-.94,0-.39-.37-.07.48-1.58.86-.83-.1.66-1.25.26-1.48,1.34.43.22.95.64-1.31.6-.27Zm2.87-2.21-.42,1.27-1,.69-.07-.68.77-.93ZM299,249.71l-.13.43.31.11-.74,1.12-.05,1.34-1.2,1.73.33.06,0,.44,1-.06.05,1.8-.33,1.09.56,1.09-.52,1-.07,1.31-.55.6.66,4-.34-.11.16.77.19-.21.07.24-.11,1.25-.78,1.93.53.68-1.07.88-.19.39-1.86.9-.49.94-2.21.52-.21.68-1.61,1.58-.1.95-.91,0-.59,2,.23,1.06-.4.89,0,.82-.79.39-.33.95-.54.3,0,1-.64.61v.8l-1,2.86-2.61,3.39-1.14.16-.09-1.92,1.05-6.54.61-.73v-1.18l.46,0,.24-.84-.19-.71-.62-.26.08-1,.3-.21.16.69.3-.2.27-1.72.74-.29.05-.41,1.54-1.63.24-1,1.24-1.6,0-1.5,2-1.95.19-1,.87-1-.23-1.07.9-1.44-.05-.61,1.35-2,.71-.31.8-2.21.32-1,1.19-2.7v-.39l-.26.19-.47-.73.73-.73,0-1,.72.55-.51-2.36,1.07-1,.19-1,1.44-.16Zm-7.56-.5.47.38.4,1.72.91,1v.34l-2,.32.26-.62h-.35l-.66-1.45,1-1.68Z" transform="translate(86.33 89.24)"/><path id="61a2951c-1954-462f-8e46-0eda088bbbaf" data-name="PH-COM" class="6c4a21bc-0a9d-48ed-b8d0-62e3471f33b9" d="M346.76,324.86l-.35.66,2.26,7.44,1,4.54.12,4-7.8,4-.23.47h0l-1.33-1.17.19-.9-1.24-2,.41-2.15-.12-.32h-.42l.25-1-.37-.58.17-.67,1.17-.58-.75-.94,1.52-.33.42-2.37-.79-1,.93-1.56-.55-1.52L340,330.18l-1.5,2.55-.52,0,.1-.79-.31-.8-.68-.33-.25-.75-.56-.2-.64-4.92h6.95l.39.82,1.09.62.52-.54,2.14-.94Z" transform="translate(86.33 89.24)"/><path id="e0f77465-cfa3-42b2-899c-2738ab6b4ac0" data-name="PH-DAV" class="6c4a21bc-0a9d-48ed-b8d0-62e3471f33b9" d="M335.89,348.51l.46.06.34.51-.14.9-.6-.22-.43-.9.37-.35Zm.52-5.37.58.66.65.13.81,1-.49,1.95.4,2.12-.64,1-1-1.65-.25-2.37-.38-.17-.36.3-.35-.69,1-2.37Zm-.73-18.24.64,4.91.55.2.25.76.68.32.31.8-.1.79.52,0,1.51-2.54,1.2-1.36.56,1.52-.94,1.57.8,1-.43,2.38-1.52.33.76.94-1.18.58-.17.66.37.59-.25,1h0l-.46-.07-2.21,1.48h-1l-1.27,1.28-2.39.11-.09-7.27-5.72-.14h0l-.07-.34h0l0-1.46,1.11-.12.46.49,1-.25.67.39.79-.78.28-2.49-.58-1.2.08-2.16-.9-1.68h0l6.68-.28Z" transform="translate(86.33 89.24)"/><path id="a7c8a959-56e8-4781-b0c3-69029ee70ddf" data-name="PH-DAS" class="6c4a21bc-0a9d-48ed-b8d0-62e3471f33b9" d="M326.09,334.78l5.72.14.09,7.27,2.39-.11,1.26-1.28h1l-.8.68v.41l-.71.33.36,2.55-.33.69-1,1.11-.57.14-.08.37-.42-.5-.78.44-.84,1.07.06,1.36-.74.53-.1.59-.74.51-.63,1v.22l0,.88-.42.66.28,2.06-.59.77.64,0,1.27.49.1-.39-.61-.61.21-.27.77.89.47-.09,0,.62.85.37,0,.81.74-.35.7.45-.41.21.18.22.5-.11-.3,1.66.59.2.25.18,1.23,3.44.71,1,.22,1-.21,1.11.27.43-.3,1.77-.91,2.36L332,376.05l-.34,1.07-1.92,3-1.85.4-.23-.33h0l-.32-.45,2-1.47,1.68-3.57,0-.63.39-.27-.17-1.3,1.23-3.4.08-1.13-.64-.71-.13-2.18-1.06-1.61.77-.83-.14-1.25L330,359.3l-1.63-.49-.72,1.11-1.59.72-1.78-.94h0l.61-.93,0-.59h0l-.35-1.95-1.09-1.34,0-1,.46-.21-.72-.54h0l-.46-1.42.55-.34.44.28.37-.41.11-1,2.05-1.71.49-1.46.83-.09-.54-.81-.12-1.42-1-.81-.34-.76.43-1.37-.44-2.11L326,339l-.12-1.94.52-.91-.26-1.39Z" transform="translate(86.33 89.24)"/><path id="7f76b4df-3394-4e4b-be10-7d3e5ed0af44" data-name="PH-DAO" class="6c4a21bc-0a9d-48ed-b8d0-62e3471f33b9" d="M351.05,324.83l.22,2.08h0l0,.6.55.37-.24.34.22.52,1,0,0,.4.64.13.15.38,1,1.16.73-.07.84.51-.43.49.22.55-.19.83.56.7h-.35l-.09.65.56.22.37,1.93-.09.78-.85,0-.15.28,0,.75.59.15-.51.49.31,1.08-.43.33.36.56.88,0-.91,1.26-.09.7-.62-.1.08.5-.32.36.19.51-.36.09,0,.43-.65.15-.49.71.16.5-.5.19-.14.85.29.55-1-.21-.35.31-.74,0-.59-.33-.54.66-.15.88-.64.24.2.55,1.25,1.06.1,1.27-.85,0-.55-.43-.07-.53.35-.4-.53-.49-.31-.62-.48-.55-1-.36-.44,1.17.39.35-.29.19,1.8,2.78-.94,2.71.28,1.9-.44.86,0,.81.32,1.11-.34.1-.34.8.23,1.56-.35,1.18-.13-1.53-.46-.78-.7-.37.33-.72-.9-1.06-.62-1.5.21-1.52-.55-1.32.55-.62-.22-.34.32-.89-.5-.55.11-1.87-1.29-.7-1.06-1.22.31-1.91-.91-.79.19-.34-.37-.28h0l.23-.47,7.81-4-.13-4-1-4.54-2.26-7.44.36-.66h0l4.28,0Z" transform="translate(86.33 89.24)"/><path id="41b364fc-c6e0-4823-9d1a-cc4331bc594d" data-name="PH-DIN" class="6c4a21bc-0a9d-48ed-b8d0-62e3471f33b9" d="M331.05,268.48l.69.4-.09.53-.48-.1-.31-.69.19-.14Zm3.88-.2.88,1.83-.78,2,.13,1.26-.7-.41.08.52.5.11.34,1-.3.28.12.48.5-.06-.4.43.05.64.84,1.42-.59,1.51.16.71-.51.32,1.15,1.3-.14.59-.54,0-.24.35-.55-.7,0-1.27-1.14-.38.58-.14-.58-.36h-.31l-.41-.33.46-.19-.15-.68,0-.34.34-.19,0-.59-.4-.24.11.53-.65-.43-.86.49-.83-1.66.32-.21.25-.93h.61v-.18l.38-.27-.68-.91.19-.77-.06-.21-.1-.83,1,0-.2-1.42.71.53.35-.15.37-1.75.69-.69Z" transform="translate(86.33 89.24)"/><path id="a803a750-3ba9-4b73-b1ad-79fe2acc0d28" data-name="PH-EAS" class="6c4a21bc-0a9d-48ed-b8d0-62e3471f33b9" d="M342.08,261.28l.23.69-.71-.61.48-.08Zm-5.95-1.1.74.6-.38.79.16.39,2.13.37.2.31-.25.5-1.3.15-.64-.67-.59-.13.07-.28-.72-.21-.26-.93ZM335,256l.15.59-.28.15-.51-.31,0-.38Zm2.77-.62,1.61,2.13-.31,0-1.37-1.71Zm-14-28.93.33-1.27.64-.69L327,227l.66-.4h0l-.09.19.45.06.42-.83.57.08-.56.53.23.2.38.11.32-.36.16.28.16-.38.59.27.59.69-.2.37.51-.08.05.44.34.22,0-.34.48.6-.1.48-.28-.28,0,.3-.95.12.43.3-.16.33-.51,0v.76l.83-.06.19.26-.47.1.67.68h.41l-1.38,1.56-.67.85-.13,1.43.52.56-.15,1,.6.16.25.59-.27.46-.5-.21-.61.53h.43l-.13.23.32.21.49-.44.47,1.48-.27.22.49.27-.25.26-.66-.15-.14.3.38.28-.56.69.22.54.58,0-.1,1.07,1.05,1.19.07.47-.56.6.65-.15.5.36.18.74.25.28.46-.13.44.77.68.21-.43,1.27-1.53,1-.3,1.39,1.45.46-.21-.21h.61l.1-.26-.72-.59.27-.18,1.5.81,2.23,3.81-.24.42-.78-.34-.37-.86-.69-.4.68-.7-.83-.06-.11-.57-1.77.65-.17-.09-.38-.22.27-.49-.91,0-.42,1.57-.49-.44-.32-.14-.32-.44-.29.19.12.44-.45-.29-.05.45-.56.22-.07-.42-.72,0-.3-.47-1,.07-.45-.61-.74.16-.27.43h0l-.09-4.6,1.3-1.87-.48-.61-1.24-.43-.56-3.57.33-.81,1.39-1-.28-4.07-1.4-3.26h-2.11l-.06-4,.75-.49.17-2.29Z" transform="translate(86.33 89.24)"/><path id="16b6f073-5a9c-4d71-818c-e31ed697809b" data-name="PH-GUI" class="6c4a21bc-0a9d-48ed-b8d0-62e3471f33b9" d="M268.16,268.21l.5.5-1,.21.07-.55Zm-1-6.41,1.22.87.19.53.11,1.76-1,2-.05.71-.41.66h-.42l0,.47-.45.37-1.05.14-.87.49-.64,0-.14-1-.78-.68.19-.6.9-.22v-.56l-.29-.94,1.2-1.4,0-.51.45.12.65-.39.12-1,1.05-.81Z" transform="translate(86.33 89.24)"/><path id="6bbe8bc1-e7df-4955-a9fc-618789e4177e" data-name="PH-IFU" class="6c4a21bc-0a9d-48ed-b8d0-62e3471f33b9" d="M226.62,120.41h.84l.72-.71.79-1.79-.29-.9.2-.62,1.07.09.76-.41,1.14-.07,2.7.19,2.81-1.43,2-.31,2.61.21h0l.75,4-1,1.12-2,.61-.52-.25-.67.83-.88.1-.28.55-.41-.05.22.33-.26.4h0l-.42,1.17-.58.2.13.64-.41-.17-1.16.5h0l-.12,0h0l-7.21,1.2h0l-.14-4.35Z" transform="translate(86.33 89.24)"/><path id="9da32e90-d5f7-45c3-909b-c7ae8cc1fba4" data-name="PH-ILN" class="6c4a21bc-0a9d-48ed-b8d0-62e3471f33b9" d="M225.89,77.13l1.47,2.1.95.11.44-.56h0L228.48,82h0l-.42,1.89.38,4,.39.75-.9,1.6.09,2.45-.29.45h0l-.41.65-1.74-.22-1.14,1.15-1.26.45-.85,1.37-2.46.85-1.07,2.27h0l-.47-.5-.08-.69.47-3.08-2-.45h0l-.32-.33.83-.64.18-.78.55-.5-.56-.78.08-1.22-.17-.13,1-1.12.14-1.2.24-.16-.15-.23L219.74,86l.55-1.6-.12-1.57-.75-1.93,1.42-1.28,2,.42,1.3-.34.36-.67-.13-1.21,1.47-.71Z" transform="translate(86.33 89.24)"/><path id="eca8ada2-0b7d-4def-9aeb-37ad857dd0a6" data-name="PH-ILS" class="6c4a21bc-0a9d-48ed-b8d0-62e3471f33b9" d="M216.72,95l2,.45-.47,3.08.09.69.46.5h0l-.74,1.52-.34,2.24-.46,1,.35.49,1-.45,1.37.56-.15,1.09-.91,1.72.43,1.18,1.28-.07,1.56,1.3,0,1.35-.33.12.62.79,1.41.06,1-.71h1.35l-1.77,1.84.15,3.27-.26.88h0l-.73.5-1.64.07-.64.35-.52,3.9-.91,1.68h0l-1.1-1.33.4-1.27-.33-.24.19-.31-.47-.07.3-.43-.65-.7.23-1.77-.7.42-.29-.34-.46.19-1-.32h0l.84-1.41-.22-2.34-.25-2.29-.52-.83.72-1.78-.29,0,.1-1.11.4-.07.27-1.19.19-.45-.36-.89-.39-.13.1-.64-.29-.45v-.27l-.45-.15-.39-.12.05-.32-.85-.38-.17-.65.62-2.24.11-.3L216.54,99l-.14-.51-.53-.07.45-.4-.54-.49.62-.24.13-.45.51,0-.42-1,.1-.87Z" transform="translate(86.33 89.24)"/><path id="d30b981b-a283-48f3-ad03-5c80d39d334c" data-name="PH-ILI" class="6c4a21bc-0a9d-48ed-b8d0-62e3471f33b9" d="M278.17,252.57l.15.29-.85,1-.18-.86Zm.5-1.52.51,0-.42.62-.33-.42ZM278.6,249l.66.45-1,1,.06-1.3Zm2.14-3.45.4.34-.58.54-.19-.74.12-.26.25.12Zm-.55-.08-.66.09-.35-.38.17-.6.44-.16.2.31.2.74Zm-.88-1.74-.12.64-.82.48.21-.76.73-.36Zm-1.08-1.35.32.85-.57,1.25-.38-.46-.16.27-.4-.1.39.55.61.1-.29.35.56-.26.29.42-.85,1.25.55.52-.23.63-.36.1.16.41-.77.31.21.76-.36,1.59.71.7-.08.76-.39.21-.95-.7.12.41h-.84l-.47,1.71-.76.79-.05-.25-.51.1.28.37-.26.37-.37,0,.16-.57-.43-.22-.41,1.05-.78-.26-.47.33v.61l-.47-.26-1.12.36-.49.92.69,1.19-.26.09.11.82-.54.23.08.53-.81.94-1.28-.32-.17.41-1.23.1-.48.64.27.43-.43.91h-2.83l-4.17.7-.65.51-.86-.07-1.47,1.24-1.08.23-.4,1.12-1.08,1.34h0l-.37-.17-.06-.44.24-1.85.28-1.14.9-1.52,2.32-1.52.58-1.79,1.37-1.41.41.06.36-.81.66-.16-.24-.54.16-1.63-1.85-2.57h0l1.89-2,1.57.81,1.41,0,.95.33,1.23-.55.27-.82.41-.27,0,.4.38.24.93-1,.34.07-.52.66.57.55,2.55-.38.45.21,0,.86,1.58-.23.52-1.14.35.09v-.93l1.32-.63-.26-1.24.94-.54.86,0L276,247v-1.23l1.09-2.18h0l1.17-1.24Zm4.73.09-.5.49-.31-.26.18-.32Zm.05-1-.25.72-.16-.61Z" transform="translate(86.33 89.24)"/><path id="58c8a90f-9df7-424e-8e76-7eed50d904e4" data-name="PH-ISA" class="6c4a21bc-0a9d-48ed-b8d0-62e3471f33b9" d="M256.44,103.37l0,1,1.37,2.22-.31.21.4.37-.18.54.44.25.44-.18,0,.52.54.18.27-.24.71.17.38-.43.51.32.34.16.82,1.64-.07.54-.23.66-.41.7.14,1.06.42.38.26.18.8,0,.6-.61.43,1-.41,1.43-1,1.44.23.6-.46,1.14.23.36-.85,1.43.17.66-.4.26-2.73,5.57-.61.67h0l-3.2-.15h0l-1.12-.08-7.43,3.38-4.49-5.65-3.39-.28h0l-.19-1.08L237,122.3h0l.26-.4-.22-.32.41,0,.27-.54.89-.11.67-.83.52.25,2-.6,1-1.12-.75-4h0l-.1-4.92h0l1.24-2.78,1.6-1.14-.42-1.51h0l3.75-.23.69-.4,7.71-.31h0Z" transform="translate(86.33 89.24)"/><path id="7229836c-36ab-43d5-9fb1-166b37d7cd97" data-name="PH-KAL" class="6c4a21bc-0a9d-48ed-b8d0-62e3471f33b9" d="M239.44,100l-.06.56.89-.15,4,3.9h0l.42,1.5-1.6,1.14-1.24,2.78h0l-3.17-.6-1.58.55L235,111.93l-2,.43-1.72-.59-.69-1-3.22-.33h0l1.81-3.81.08-2,2.55-1.65.22-.67-.64-1.84.71-.41h0l2.38,1.42.6-1.11,3.08.7.22-.55Z" transform="translate(86.33 89.24)"/><path id="3dd7d407-490e-4ef1-93a3-c98bd19305c2" data-name="PH-LUN" class="6c4a21bc-0a9d-48ed-b8d0-62e3471f33b9" d="M216,118.21l1,.32.46-.19.3.34.69-.42-.23,1.77.65.7-.29.43.47.07-.2.31.33.24-.39,1.27,1.1,1.33h0L219,125.6l.38.25-1.41,1.32-.62,1,1,6.13h0l-.3.6-1.91.07h0l-.36-1-.8-.5-.38-.22-.06-1.53-.51-1,0-.13.13-1.74-.59-.76.13-.44.25-1.25-1-1.09.7.15v-.75l.68-.93.08-1.16L214,121l.25-.81,1.44-1Z" transform="translate(86.33 89.24)"/><path id="ac5e61eb-3742-43f0-8482-d1056f9bd40b" data-name="PH-LAG" class="6c4a21bc-0a9d-48ed-b8d0-62e3471f33b9" d="M240.05,173.27l2,3.89.34-.22.52.5.6.08.18,3.09-1.5,2.11-.37,0-.59.58-.68,1.68-1.39.23L236.87,187l-1.56.51h0v-.63l-.42.07-.6-.91-.5-2.44-2-.57-1.47.06h0l.09-1.12-.3-.09.44-.85-.4-.13L231,179l-1.4.4.09-.9h0l1-.66.14-2.7,1-.84h0l.69-.07.65.47,1.18,2.37.08-1.47h.34l.41-1,.61.1.07.63.5,0,.52.53.3,1.18-.79,1.95.08.88,1.8-1.27-.48-.52.17-.73-.34-1.37.35-1.43,1-.92,1.17-.4Zm-4.81,5.34-.37-.06-.39-1.74-.17,1.66.61,1.42,0-.88.4-.1,0-.3Zm0-3.8h0l-.05.07Zm.09,0h0l0,0Zm-.14-.17h0l0,0h0l0,0Z" transform="translate(86.33 89.24)"/><path id="b7f0fbb6-4a50-4b79-8150-c8dd826b135d" data-name="PH-LAN" class="6c4a21bc-0a9d-48ed-b8d0-62e3471f33b9" d="M303.17,317.4l1.74-.32,3.4.21,1.41.89.71,1.31h0l-.1.58.33.54-.33.62-1.48.48h0l-.66-.51-2.73-.81-.33-.38-.76.1-.51,1.74.07,1.13-1.48,1.52-2,.31.24.84-.61,1.38-2,.12.51,1.69-.83,1.64.12.7-.31.65-3.72-1.14.05.39-.55.61h0l-.93-.07-.23-.66h-.63l.05-.75-.41-.59-.66-.16v-.34l-1.6-.37h0l1.11-2.85h0l.57-.61,1.2-.43.87-1.33,1.08-.64.32-.6.47.19.69-.25.75-.88,1.94-1,3.12.29,1.51-.59,1-1.54Z" transform="translate(86.33 89.24)"/><path id="aae5282a-a087-4296-bc6f-5a669a7a3aec" data-name="PH-LAS" class="6c4a21bc-0a9d-48ed-b8d0-62e3471f33b9" d="M308.85,321.71l.85,1,.56,2.47.93,1.8.59.32-.16.46.32.55.67.24,1.09,1.88.43.23,0,1,.55.48,0,.61,1.11.69.09.44h0l-2.42-.82-1.18.61-.92-.22-.9-1.15-.69-.2-.95.07-1.27.61h0l-1.71,1.92-2.63,1.34L302,337.59l.09.46h0l-.43.15-1.17-.72.4-.33-.66-1.19-2.35-3-.65.1-.27-.5-1.32-.65-2.27-.17h0l.55-.6-.05-.4,3.72,1.14.31-.65-.12-.69.82-1.64-.5-1.7,2-.12.6-1.38-.24-.84,2-.31,1.48-1.51-.08-1.14.52-1.73.75-.1.33.37,2.73.82.67.5Z" transform="translate(86.33 89.24)"/><path id="9f0ee7f0-ca88-4c16-9c98-9d5b0fd595f4" data-name="PH-LEY" class="6c4a21bc-0a9d-48ed-b8d0-62e3471f33b9" d="M304.75,243.15l2.78,2.79.73,1.21.24-.4-.4-.9.36-.21,1.33.7.33,2,.76.79.52-.16,1,.42,1.38-.31,2.07-1.57.32-1.31,1.07.14.37.38.55-.3.26.32.63-.44.32.78.53-.12-.25.46.24.23-.38.39v1.66l.33.62.7.05-.06.73.32.26-.28,1.23.74,2.06-.12,3-.72,2.08.53,2.44.36.45,1.68.49-.24.52,1,1.17h0l-2.19,2.26H319l-1.06,2.76L318,273l-1.19.26-1.64,1.57-.36-.16h0l.7-2.89-.56-.91-.75-.43L314,268l1-1.21.11-1.94.74-.88-.47-2.67-1.72-2.4-.53-1.33-.68-.31-1.33-1.42-.56.1-.74.73.29,1.1-.78,1.43-.89,0-.64-.73-.38.2.12-.68-.41-.68-.1.8-.91-.23.77-1.36-.1-1.17-.81-.72.73-1.07-.4-2.13,0-.54,0-.38-.26-.71-.21-.34.1-.38-.67-.22v-1.1l.45-.08-.68-.28L305,247l.53-.24-.73-.19-.62-1.82,0-1,.6-.57Z" transform="translate(86.33 89.24)"/><path id="bb1e50cd-3b22-446c-9692-23644a4f9180" data-name="PH MG" class="6c4a21bc-0a9d-48ed-b8d0-62e3471f33b9" d="M298.07,340.89l-.06-.8,1.32-1-.79,1,.08.44ZM318,352.57l-1.24.34-.65-.29-.15-5h-.41v-.24l.08-1.1.61,0,.05-.58-.66,0,0-.56-1.94-1.84.1.25-.49.15,0,.63.82.4.36.57-.43,0,.14.59-.43-.44-.26.67-.08-.33-.32.05-.14.44.49.26.32.76-.2.25.31.18-.76.59.09.43-.27.14-1.17-.63-.9.08-1.21-1.56L309,347l-1.66-1.32,1.83-3.32-.89-.23-1.25.38-.94,1.37-1-.14,1.79-3,.31.15,1.49-3.37-1.21-1.74.16-3-1.71,1.92-2.63,1.34L302,337.59l.09.46.18.3.82-.12.12.81.28.08-.09.6-1,.07.12,1-.26,1,.25.29-.65-.13-.05.67-.37-.08-.25.5,1.21.17.57.5h-.22l-.39-.47-1,0-1.23,1-1.12.13-1.48,2.35-1,3,.42,1-.39.28.1.61-.43.23.41.12,0,.57.35-.13-.12.56.91-.57.69,1,1.34,0,3.76-.09.39.67,5.2,0,1.56-1.65-.53-1.5,2.32-.49-.06.29.91.05-.67,1.93,1.81,0,.74,2.49.48.53,2-.16,2.69-1.46L318,352.57Z" transform="translate(86.33 89.24)"/><path id="13bc9eee-9735-45fb-b9e4-0054e13e719c" data-name="PH-MAD" class="6c4a21bc-0a9d-48ed-b8d0-62e3471f33b9" d="M249.16,196.68l.1.41.34-.13.13.52.48.23.3-.42.84.29.71.21.26-.61.54.47-.22.36.56,0,.23.6-.33.06.71.19.27-.31.92.8-.22.68-.35-.21,0,.3,1.13,1.18-2.35,2.2.14.82-.57,1-1.05-.2-.71-.94-1.93-.85-1.05-1.4.11-1.35-.32-1,1.17-2-.18-.21.24-.22-.2-.33.34-.16Z" transform="translate(86.33 89.24)"/><path id="05ce86f0-28d8-4989-932d-481e858b910c" data-name="PH-MAS" class="6c4a21bc-0a9d-48ed-b8d0-62e3471f33b9" d="M277.89,236.26l.19.24-.47.39-.08-.43Zm2.35-17.09,3.22,1.38-.9.06.49,1.27-.84.38.23.46.32.21.33-.75.53.11-.41-.63.16-.35.68-.34.92.15,2.09,1.58.42-.29.34,1.15.9.66-.82.65,1.07-.15.25,0,.43.41.43-.17.57.39,2,3.16.24-.12-.29-.59.43-.41.51.18.73,1,.41-.64.5.3.55,1.31,3,4.26-.08.48-.82-1.41-.34-.07-.11.55.46.84h.27l1,2.27-.33,1.35.34,1.69-.47-.13-.82-1.36-2.14-1.83-.33.07-1-.85,0,0-3.1-.73.14-.34-.37-.23.44-.56.44-.05L289.62,232l-.21-.43-.91-.2.31-.48-1.74-2.66-.86-.31-1.61.53-1.38,2.15-.73.34-.27.53-.22-.12-.41,1.22-3.12,2.7-.4-.59,1.22-2-.13-.44.36-.47.26-1.69.51-.13.95-.57-.29-.81.36-.39-.5-.73-.77.67-.27-.48.4-.05-.27-.66,1-1.52-.17-1,.35-.23.31-.79-.27-.14.3-.28-.88-.41-.3-3.34Zm8.81-2.14.7,1,1.23.6-.27.18.15.1h.51l.21.67,0,.31.27.75.07.16.41.85.11,1.84.4.14-.16.83.35,0-.27.75-1.4-1.49-1-1.41,0-.43-1.19-1.41-.52-1.48-.26.15-.47-.7.07-.52.23.48.24-.28.29.22-.41-.92.63-.44Zm-14.3-10.78.37.49.75,0,3.14,5.13,1.26.09.85.46.27,1.67,2.2,2.9L283,217l-.57-.6-1.65-2.56-1.43-.21-.65-1-.72-.17.2-.32-.9-.43-.4-.91-.3.15-.31-1-1.78-.19L274,209l-.44.3v-.93l.32-.43-.72-.67.92-.36.62-.7Z" transform="translate(86.33 89.24)"/><path id="21413406-1d73-498a-b1de-ef26828b60c7" data-name="PH-MNL" class="6c4a21bc-0a9d-48ed-b8d0-62e3471f33b9" d="M227.48,170.56l.25-.24.39.49.29-.15-.51-1,.28-.13.43.18.09.44.44-.07.33-.75h0l.08-.08h0l.75-.19.1-.49.33-.1.32.4.91.1h0v.45l.39,0-.63,1.48.65.42-.1.53-.59.19.17.84-.36.54.27.88h0l-1,.84-.14,2.7-1,.66h0v-.72l-1-1.54,0-.66h0l.45-.61-.34-.16.25-.19v-1l-.95-.81.11-.43.26.29.06-.86-.25.06-.79-1.32Z" transform="translate(86.33 89.24)"/><path id="07bf74d1-4061-427a-9351-b29d24390815" data-name="PH-MSC" class="6c4a21bc-0a9d-48ed-b8d0-62e3471f33b9" d="M288.75,309.57l.24.19-.15.25.52.2h1.1l1.29,1.41.91,1-.07.67.84.67,0,.5.49.63.2,1.81.39.54-.36.27,0,.67.41,2.85-1.76,1.3-.63,1.16-1.1-.1-1.7.93h0l0-.41-.76.16-.88-.47-.32-3.88h0l.12-9.27h0l.24.12.28-.38.19.11.39-.55-.54-.17.73-.23Z" transform="translate(86.33 89.24)"/><path id="9ebfa6bc-b89c-4faa-b508-ae468fcec663" data-name="PH-MSR" class="6c4a21bc-0a9d-48ed-b8d0-62e3471f33b9" d="M325,299.9l.69,3.09-.38.77.82,1.13-.55.43.25,4.47h0l0,1.79h0l-4.88.05-3.67-.34L316.09,314l.05,1.19-4.52-.06-.06,1.3-.37.56.13.86-.31.33-.28-.13.08.73-.38.67h0l-.71-1.31-1.41-.89-3.4-.2-1.74.31h0l.38-1.17.46-.41,0-1.51.72-1.83,3.05-1.87.65.08-.17.69.93.38.74.74.58.05.19.46,1.74.2-.28.49.45-.42.11.54.8.24.89-.45.28-.47-.25-1,.66-.83-.21-1.09-.45-.21,0-1,.4-.55h.44l-.3-1.13.57-1.3-.26-3.47.89-.66,1.16-.08,3.55,2,1.22,2.07,1.93-.4.56-1.86-.36-1.89.31-.42.05-1.16.42-.29Z" transform="translate(86.33 89.24)"/><path id="3a223950-7956-4403-9f1a-04f32b488693" data-name="PH-MOU" class="6c4a21bc-0a9d-48ed-b8d0-62e3471f33b9" d="M241.87,109.73l.1,4.92h0l-2.61-.21-2,.31-2.81,1.43-2.7-.19-1.14.07-.76.41-1.07-.09-.2.62.29.9-.79,1.79-.72.71h-.84l-.55-.26-.24-.81-1.57-1.47h0l.26-.88-.14-3.26,1.76-1.84h0l.9-.06.4-.54v-.81h0l3.22.33.69,1,1.72.59,2-.43,2.08-2.25,1.58-.55Z" transform="translate(86.33 89.24)"/><path id="0102605f-a180-4240-b912-cc3f81ac482c" data-name="PH-NEC" class="6c4a21bc-0a9d-48ed-b8d0-62e3471f33b9" d="M279.3,256.05l1.14.13.49.28,1.16.84,2.06-.09,1.38.78.53-.4.49.42-.44.25.59.15.28,1.49.74-.17-.22.58.28.55-.61,1-.35-.25.1.48-.5.8L286,265.4l-.37,1.2-.31.13.14.37-1,1.07L283,269l-.5,1.37h0l-1.93-.71-2.78.07,1.63,3.27-2,2.38-2.13,3.53-.67,2.31-5.78,7.35-2,2-.78,1.83h0l-1.72-1.64-.43-1.18-.87-.49-.34-1.37-.51.09.33-.9-.61-.26-.52.27-.22-.3.53-.62-.57.18-.37-.37.41-.82-.23-1,.28-.61-.56-.48,1.27-1.43.42-1.77,1.27-.24,3.58.21,2.61-2.06,1,.09,1-.75-.61-3,0-1.63.52-1.69-1.56-3.48.71-.68.62.09.59-.38.05-.37.8-.65.58-1.65.05-1,.39-.15.12-1.43-.4-.34-.17-1.07.33-.34-.1-.6,2-.66.49.41,1.55-1.49.62-.06.89-.71Z" transform="translate(86.33 89.24)"/><path id="b75d3027-e951-4501-b244-2d10bd5bef63" data-name="PH-NER" class="6c4a21bc-0a9d-48ed-b8d0-62e3471f33b9" d="M266.05,292.4l.79-1.83,2-2,5.78-7.36.67-2.31,2.13-3.52,2-2.38-1.63-3.27,2.78-.08,1.92.71h0l-.1,2.41-1.05,2.14-.09,1.26L280,279l-1,1.15-.12.7-.61.43v1.15l-.44.34.67,3-.13,1.7-.72-.51-.4.61.38.68.77.09.17.44-.31.35,0-.39-.34-.16-.4.83.78,0L279,291l1,.34.72,1.92.89.64.3.76-.64,2.53-1.87,2.63-1.16.45-.55.67-.35-.19-.85-.29-1.34.65-1.68-.85-1.45-3.42-.31-2.39-1.59-.78-2.73-.38-1.38-.91Z" transform="translate(86.33 89.24)"/><path id="91286d18-535e-492a-a677-ebc840634ca2" data-name="PH-NCO" class="6c4a21bc-0a9d-48ed-b8d0-62e3471f33b9" d="M307.6,332.79l1.27-.61.95-.07.69.2.9,1.15.92.22,1.18-.61,2.42.82h0l.42,1.42-.58.55-.26.84.66-.35.51.37v.65l.87.42,0,.39,1.1-.38,1,.72,1.72-.12.42-1,2-.31.24-1.31.63-1.12.53,0,.05-.48.72.28h0l.07.34h0l.25,1.39-.52.92.12,1.94-.48.77.44,2.1-.43,1.37.34.76,1,.81.12,1.42.55.81-.84.09-.49,1.47-2.05,1.71-.11,1-.37.41-.43-.27-.55.33.46,1.42h0l-2.66.82h0L318,352.57l-1.24.34-.65-.29-.15-5h-.41v-.24l.08-1.1.61,0,0-.59-.65,0v-.56l-1.93-1.85.09.26-.49.14,0,.63.82.41.35.57-.42,0,.14.58-.43-.44-.27.68-.07-.34-.32.06-.15.44.49.26.33.76-.2.25.3.17-.75.6.08.42-.27.14-1.17-.63-.89.09-1.21-1.56L309,347l-1.66-1.32h0l1.83-3.32-.89-.24-1.25.39-.94,1.37-1-.14,1.79-3,.31.15,1.49-3.37-1.21-1.74Z" transform="translate(86.33 89.24)"/><path id="4faf5b02-4e62-411f-bc60-af5888ea1265" data-name="PH-NSA" class="6c4a21bc-0a9d-48ed-b8d0-62e3471f33b9" d="M299.85,226.37l.33.35-.35.43-.33-.58Zm4-1.67-.63-1-.08-1.28.78,1.05-.07,1.2ZM300.83,222l1.13,1.55-.23.73-1-1.17Zm6.48-2.33.1.4.55.18-.32.27-.66-.3Zm1.46,0,.66.91-.46.05-.66-.91.46-.05Zm-2.94-.19.5.12-.06.4-.46.09-.19-.57.21,0Zm-.09-.9.79.58.06.56-.75-.35.16-.4Zm14.37-.34.46.41.14.68,1.2.52-.32.43-.19.3.61.15,0-1,.54-.09.35.44.77-.49,2.77,2.14-.16.44.7.11.09.94,1,.52-.87.19.39.25-.41.05.16.48-.45.19.1.58.7.07-.77.5.15.36,1-.58-.21.38.26.35-.42.09h0l-.66.4-2.23-2.52-.64.7-.33,1.26h0l-1.09.11-3,1.22-1.54-.56-1.12,2.65-.59-.85.27-1-2.92-1.66-1.66,1.12-3.59-2.15-1.25,1.2-1.62,0h0l-.54-1.5.26-.91-.17-.13-.17.37-.44-1.45,0-.11-.55-.55-.06-1.18-.48-.71.45-.79,1,.65.1.46.27-.26.35.19,0-.42.83.41V220l.66.51v.35l.5-.1.54-.27-.27.42.17.38.3,0,0-.56.84.4h1.06l.19-.25,2.18.29,1.66.08,1.46-.66.92.39.64-.16.35-.74-.55-.44.67.16.1.13.91.1.55-.39.17.46-.28.14.87.14.55-.32-.53-1.79Zm1.7-.91.52,1.87-1.27-.44.44,0,.15-.38L321,218l.05-.46.17-.29Zm-16-.28.64.26.1,1-.63-.37-.11-.91Z" transform="translate(86.33 89.24)"/><path id="b8af6f4a-d623-4212-8bd7-007ae69202ac" data-name="PH-NUE" class="6c4a21bc-0a9d-48ed-b8d0-62e3471f33b9" d="M226.64,137.42l3.33-.48,3.39.83.51,4.3,1.9,3.23h0l2.15,6.73-1.46,6.66h0l-1.61-.12L232.64,157l-2.79.47-1.5.8h0l-1.24.24-.73,1-.46-.94h-1.39l-.35-1.48h0l.23-.91-1-.74.07-1,.51-.82-1-3.09.73-1.3-1.3-.36-1-1-.94-4h0l3-.48,1.8,1.4.8-.65,1.46-3.72Z" transform="translate(86.33 89.24)"/><path id="7bb48dc7-5612-4fe6-8c28-6499a6f8704e" data-name="PH-NUV" class="6c4a21bc-0a9d-48ed-b8d0-62e3471f33b9" d="M237,122.3l1.49,1.42.2,1.08h0l-.67,4.49,1.63.55-.3,2.09-3.28,1.37.64,5.68,3.31,2.88h0l-4.23,3.44h0l-1.9-3.23-.51-4.3-3.39-.83-3.33.48h0l-.88-1.55-1.65-.7h0l-.22-1L225,132.3l.9,0,1.05-2.66-.18-1.69.49-2.12h0l7.21-1.2h0l.12,0h0l1.16-.5.41.17-.13-.64.58-.2Z" transform="translate(86.33 89.24)"/><path id="eba53a47-e8c9-4f3e-ad74-fdbd11f7f8ad" data-name="PH-MDC" class="6c4a21bc-0a9d-48ed-b8d0-62e3471f33b9" d="M229.68,227.64l.5.86-.67-.09-.12-.43Zm1.29-1.45.78,1.47-.17,1,.4-.19.48.77-.38.32-.76-.49-.27-.89-.84-.3.12-1.48.64-.2ZM216.3,197.71l1.18.51,1.87-.09,1.3.46,1.24-.08,1.85.65,3.18-.81h0l-.2,2-2,3.07,4.23,2,3.18,2,2.69,1L235,218l-.33,5.84.25,4.39h0l-.77-.69-1.16-.12h-1.06l0-.51-.44-.52.34-.26.48.3-.12-.58-.35-1-.43-.17-.37.38-.72-.31-2.63-3.38-.14-.83.44-.86-.22-.76-1.45-1.78-.18-.63-1.51-.39-.15-2-.52-.41.73-1.54-.4-.6-.19-.84,0-.25-.69-1.83-1.9-3.06-1-.26-.85-.67-1.1.12,0-1h-.44l-.51-.64.11-.6-.47-1.3.17-.54-.27-.4-.6-.27-1,.37.09.57-.3.26-.83-.16-.81-.89-.25-.59.64-1,.84-.57,1.4-.27Zm-2.69-3.61,1.71.67.67,0,.25.64-.8-.12Zm-.35-3.58,1,.68-.05.42-.51.33-1.15-.76.5-.17.19-.5Zm-4.53-.67,1,.21,1.48,1,.47-.25,1.48,2-.6,0-.26.37.47.37.39-.14.16.57H213l-.25.37-.31-.74-.73-.16-.42-.57-.65-.06-1.69-1.11-.13-1.19-.41-.31.36-.38Zm-1.29-.81.52.5-.23.27-.69-.44Z" transform="translate(86.33 89.24)"/><path id="87585f22-b67f-4ba4-a170-b721a7bd3831" data-name="PH-MDR" class="6c4a21bc-0a9d-48ed-b8d0-62e3471f33b9" d="M228.82,199.07l1.87,1.46.74-.24.32,0,.75.18,1-.17.39-.47,1.46,1.9.05-.24.84.47,1.71,2.46.8-.05.62.33,0,1.94.59.21.9-.38,1.1.74v.71l-1.19.8-.42.84.28,1.86-.36.81.26,1.27-.41,1.72,1.65,2.42-.05.32,0,.56-.47.83,0,.13-.46,1-1,.7-.58,0,.17.92-.8.76.07,1.08.9.88-1.56-.06.31,1.74-.33-.19-.36-.1,0-.64-.48,0-.29.72-1.27.23-.77,1.74h0l-.25-4.4L235,218l-.11-9.54-2.68-1-3.19-2-4.23-2,2-3.07.2-2h0l.51-.31.66.2.25,0,.49.81Z" transform="translate(86.33 89.24)"/><path id="ea8db8e3-2e9d-4dd6-9a4b-d76ab80234dd" data-name="PH-PLW" class="6c4a21bc-0a9d-48ed-b8d0-62e3471f33b9" d="M140.07,323.14l.13,1.29v.33l-.07.3.26,1.94-.41.19.24.38-.4.87-.77.69,0,.11-.32.09-.43-.26.15-.82-.39-.06-.6-1.36-.48,0-.15-.52.37.14.5-.48-.38-1.09.39-1.26,0,.86.8-.61-.16-.43,1.73-.28Zm-1-1.25.49.27.27.76-1.06.31-.16-.47-.44-.16.9-.71Zm2.52-1.14,1.09,0,.4.57-1.3.06-.39-.5Zm-1.16-1.55.57.14.28.59-1,0Zm5.31-1.74.67.77-.13,1.84-1.2.71-.7-.7.12-2.16.24-.42,1,0Zm-2.1.29.64-.07,0,.59-.83.61-1,.15-.3-.69.68-.11.87-1.1v.62Zm43.94-52.12,0,.33.32-.21-.49.31-.27.41-.52,0L187,266l-.34-.36Zm15.15-1.46.76.68.14-.3.82.83,1.78-.05.48.81-.41.33-.18-.44-.18.55.3.34-.82.29-.07-.4-.32.72-.46-.28-.14-.68-.43-.09.89,1.53-.26.21-1.28-.23.41.53-1.57.46-1-.52.05-1.46-.36.21,0-.79.31-.29.66.43.25-.89.69-.66-.11-.84Zm-12.21-8.57.3.17-.36.74.26.58-.18.24-.69-.79.16-.84.36.15.15-.25Zm9.45-.81.37.66-.55,0Zm-.44-.33.21.18-.52.82-.08-.59Zm-2.37-.64.12.29.8,0-.15.58.57.82-.21.69-.11-.65-.45.42-.27-.66-.83-.23.53-1.31Zm2.35-.55.25.72-.48.4.16-.45-.39-.6.46-.07Zm-1.87-1.58.52.14-.06.57-.44.26-.23-.24,0,.47-.72.07-.15-.81.75,0,.07-.41Zm2-3-.4,1.35-.48-.84Zm-4.92-2.37.61.21.13,1.91.61.24.37-.43.33,1.12-.69,2.7-.85,1,.83,1.46.54-.35-.23.53.43,1.26-.18.26-.56-.41-.78.13-.44,3.06.58.31,0,.74.55.38.9-.58.57.36,0,.31-.44-.08.36.32-.41.35.41.3-.19.59.32.46-.69,1.39h.93l.55-.62.5.4-.19.2.43.21-1-.06.39.56-.32.32.65.3.36,1.45.75.05-.24.34.35-.1.19.55-.9.35-1,1.14-1.07.47-.36,1.15-1.35.26-1.23-.32-.67.54-1.25.14-.46.7-.65.07-1.82,2.54-.57,2.84-.48.69-5.09,1.46-1.67.21,0-.34-1.1.41-.7.76h-1.11l-.49.23-.22,2,.74,1-.09,1.71-.88-.21.15-.53-.31-.79-.21.42-.4-.14-.15.3.08,1.18.78.1,0,.18.11.45.6-.15,0,.47-.56.38-.11.31L176.61,289l-.62.34-.32,1.07h-.37L174,292.36l-.05.14-.58.6.05.69L172.25,295l0,.34-.51-.19-.54.6-.27-.08-.23.78-.57.06L169,298l-1.12-.11-1.66.58-.27-.27-1.39.78-.55-.24-.44,1,0,1.14-.76.12.37.37-.1.37-.51.13.18.32h-.25l-.89,2.05h-.36l.05.58-2.65,1.17-1.07,1.34-.73.08-.63,1.18-.86.64-1.13,0-1.57.65-1.32-.38-.68.72.27,1.06-1.06,2.18-.31.15-.7-.62-.38.47-.18.15h-1.33l-.1.42-2.4,1.55-.58.9-.67.17.24.24-.24.36-.62,0-.07-.82.83-1.41.07-2.09.52-.41-.05-.63.61-.27-.24-.68.4.17.52-1.25.87-.39.23-.57-.47.05.83-1.1,1.48-.32-.13-.62.83-.59.27-1,.38-.12,1-1.67.3,0,.12-.53.8-.1.86-.87.19-1.1.78-.61.52,0,.09-.38.22.6,1-.1.29-1.29.47-.45-.11-.48.82-.76.34.22.52-.59.28.12,1-1.19,1.06.21.65-.66.06.81.83,0,.09-.5.56-.3.07-.5.4,0,.41-.42v-.39l.89-.2-.25-.73.25-.52,1.33-.3.27-1.39.91-.49,1.38-1.63.7-.4.26-1.56.37-.19.42.28.71-.42.3-.95,2.08-1.26,1.3-1.94.85-.58.21-.51-.22-.52.91-.45,0-.59.45-.35-.43-.66.35.13,1-.92.42.05.08-.79.44-.3.37-1.13.27,1.45.05.24v.82l.43,0,.32-.17,0-.9.66-.83-.73-.25,0-1.74.75.12.6-.54.69.33,1-.28.29-1-.34-.28.57-.13-.68-.44.24-.24.52.35.13-.58.42.2.34-.25-.23-.22.26-.49.47.08-.25-.82-.93.68-.21-.57.61-.48-.14-.36.58.07.3-.28.87.65.28-.49-.27-.3.62.1.31-.36-.41-.21-.29-.18.08-.29.12-.39.21.22.12-.33h.4l.16.29-.37.3.43.32-.24.79.58.68.06-.41.78-.28.9-1.6.91-.06.3-.68-.9-.77.84.2,1.19-1.21.56-3.32-.83-.89-.73.22-.28-1.54-1.21-.4.05-.27.77,0-.1-.26.08-.33.33,0-.42-.54-.61.07.42-.66-.4-.12.13-.35.5.08,0,.92.32-.13-.17-.37.35-.35.42.27-.21.27.42.3-.37.41.49,0-.76.49,1,0-.57.55.66.41.11-.39.34.83.28-.39.28.14-.26.48.93.15.4.48-.16.39.43-.24.34,1.08.71-.12-.64-1.72,0-.71.42.05.06-.35-.86-.29,0-.35-.93.31-.18-.35-.36,0v-.52l-.33,0,.62-1-.27-.25-.5.33-.41-.23.08-.21-.22-1.26.39-.62.47.94.75-.26-1-.76.37-.41h-.48l.07-1.16.33.48.32-.08-.16.35.57.69,1,.15-.05-1.67.29-.67-.38-.15-.23.3-.09-.82.47-1L193.2,249l.36-.13.14-.66.44.33.5-.72.12-1.41Zm7.65-2.2,1.1.23.2.4,0,.93-.86,1.69-.28.05-.41-.55.52-.31,0-.33-.41.29-.43-.22-.28.7-.37-.62-.68-.27.16-.46-.51-.25.38-.35,0,.31,1,.64-.08-.46h.44l-.51-.42.31,0v-.34l.56.95.29-.07-.12-.39.59.34-.24-.59.53-.06-.75-.79Zm7.48-5.63.76,0,.07.4-.92-.14.09-.28Zm.76-.42.4.17.06.57-.7-.73Zm-6.16-4.48.47.48,1.1.22-.69.12.24.61-.23.1.41.13,0-.53.37.23.36-.36.69.07.1.36-.93.41.81.09.41.69.16-.3.59.32-1.22.44.7.07-.5.34v.44l.29-.18.7.59-.87.71.53,0-.2.87-1.57,1.19-.26,0-.28.15-.32-.07.23-.25-.3-.12,0-1.23.35-.26,1.11-1-.39,0-.27-.13-.23-.22,0,.82-.76.1-.52-.75-.31-.87.48-.31-1-1.2,0-.75-.57-.45.16-.18.85.72.08-.46-.45-.22,0-.39.76-.12Zm7.79-.19.54.35.11.78-.64.64.89,0,.13.52,0,.31-.8.33-.23.2L211,234.54l1.3-1.1Zm-8-7.94.68.23-.07.47.36.36-.21.27,1.92.37.76.62.34.85.85-.23,0,.56,1.46,1.28.53.07,0-.46.58.12-.17-.65.3-.84-.33-.53.3-.15.13.65.45,0,.08,1.57.3.15.34-.44.26.68.35-.1.13.48.58.16.19.83-.37.42.36.57-.1.48-.4-.2-.44.45-1.06-.58-.64.56-1.07-.6-.18-.48-.3.18-.55-.25-.19.3.31.38-.25.27-.16.28-.45.42-.45-.6.18-.27-.76-.46-.16.53-.6.17L207,233l-.81-.08-.14-.34-.08-.93-.37.18-.34-.4-.11-.33,0-1.13-.7-.61-.1-.89-.36,0-.64,1.27-.08-.66.6-1.08-.37-.25v-.41l.18-.38.28-.48-.35-.48.74-.42Z" transform="translate(86.33 89.24)"/><path id="dbb4a532-47ab-44c8-8778-2fbcbc7722ac" data-name="PH-PAM" class="6c4a21bc-0a9d-48ed-b8d0-62e3471f33b9" d="M215.06,159.43l.41.07,4.2-2.22h1.48l.44-.29.93.33,1-.53.06.39.64-.09h0l.35,1.47h1.39l.46.94.74-1,1.24-.24h0l0,1-.3.49,1,1.24-.38.53-.07,1-.65,0-.4,1-.07-.3-.46.1.06.61-1.46,1.18-2,.18,0,.74-1,1.61.1.44-1.06.61h0l-.2.14-.76-.69-.76-.39.15-.29-.37-.11h0l-.59.15-.6-.37-.51-.64-.12-1-.84-.42h0l-.21-.79-.71-.65,0-1.24-.4-.8-.88-.65-.17-.7.28-.75Z" transform="translate(86.33 89.24)"/><path id="6c15d397-3214-4895-b76f-2b94af3c828d" data-name="PH-PAN" class="6c4a21bc-0a9d-48ed-b8d0-62e3471f33b9" d="M206.39,131.7l.23.62.51.21-.55.87.46.84-.57.45-.65-1.09-.37,0,.08-.35-.36-.33-.31.25-.11-.32.59-.26-.13-.31.28-.24-.07.49.36.18.07-.92.54-.12Zm-1.74,13-.56-.29h0l-.12-.22.7-.55L203.5,141l-.35-.37-.06.27-.72.08-.18.79-.45-.22-.29.41-.52-1.19.22-1.1.34-.28-.42-.58.14-1.38.45-.63-.23-.71-.41-.17.68-1.62-.25-.22.15-1.41.81-1.17h.92l.62-.84.94.59-.21,3L205,134l.62.33.17.1.36.16-.09.43.66.3.36.6.22-.54.32.18.09.13h.58v.36l.33-.17.54.59-.12.24V137l-.39.43.58.67-.34,0,0,.27,1.07.7,1.81.11,2.31-.78.06.22,2.17-2.44-.17-1.08h0l1.91-.07.29-.61h0l3.25,1.17,2.58-.33h0l1.65.71.88,1.54h0l1,3-1.46,3.72-.8.65-1.8-1.4-3,.48h0l-.57-1.33-.91,2.78-1.52,1-2-.84-.77.84-.16.75-.8.7.17.42-1.6.74h0l-1.54-2.54-.85-2.28-1.44.31-1.28-.81-.87,1.24h-.72l-.22-.43-.83.38Zm.47-14.88.64.78v.57l-1.14-.37,0-.85Z" transform="translate(86.33 89.24)"/><path id="fa578f9f-b99a-4ff3-a89e-15f9820c2175" data-name="PH-QUE" class="6c4a21bc-0a9d-48ed-b8d0-62e3471f33b9" d="M246.57,188l.75.1-.08.63.37.32-.25.45h-.24l-.6-.09-.33-.23,0-.59Zm4.75-6,3.7,2.69,1.43,1.84-.74.16-2.31-1.44-.44-.62-1.19-.5-1.65-1.92.38-1,.82.77Zm-3.13-2.36.57.1-.75,1.18-.38-1Zm13.24-9.94.65.65-.33.32-2.67.26.65-.82,1.7-.41Zm-6.29-2.31,1.14-.38.34.33-.17.53,1,.51.55-.11v1.51l-.33.15-.3-.71-2.79-1.26-.3-.87.56.24.33.06Zm-2.5-1.18.08.26.81,0,.5.61-.51-.3-.43.33-.42-.14-.28-.64.25-.14ZM251,162l.56.18-.09.29.5-.18.62.35-.23.52.91.05.15,1,0,.26-.53-.94-.47.1-.44.7.63-.25.05,1.13-.94.46-.27-.16.31,1.54.64.19.31.54L253,170l-.78,1.14-1.47.93-.53-.31-.27-.85,0-1.13.3.42.44-.13L250,168l-.69-.77-1-2.8-.23,0,.16.66-.23-.2-.25.31-.2-.3.41-1.52.39-.15,0-.74.45,0,.22.42,1.49-.81.32.32.1-.35Zm-13.83,1.42.22-.51-.22-.58,1.28-1.92,0-.69-.42-.4.52-.17-.07-.49.42-.34h0l.63.44.33-.17.46.54.56,2.94,1.38,2,.33,1.81.72.87-.26.63,3,3.07-.75-.15H245l-1.16.81-.36-.45-.36.78,1.29,6,1.52,1.63,0,1.24.68.66-.11.95-.58.61.12.34.88,1-.21-.25,4.14,3.32,3.49,1.52,2.06.18.95.46.28-1.1-1-.39-.39-.82,2.67.86.15-.34-.29-.45.52-.2.15-.44-.76,0-.05-.5-2.17-1.27-.62-1.11,0-.43.51.48-.13-.56.76-.64.4-.09.28.4.08-1.53.53-.07.1.24-.4,1.45.33.26-.13.88.41.1.56-.4-.21,1.27h0l0,.34,1.47.06,1.74-1.94,7.92,3.13h0l-5.55,1.51h0l-.46-.26-.09.88-1.69-.08-.72-.61,1.55,2.43.88.73-.32.14,0,.92.34.89h-.74l-.26.47.52,1.11-.14.41,1.11,1.07v.4l2,1.28,0,.32-.4,0-.8-1.1H265l1.95,2.67.6,1.56v2.43l.31.14.28,1-1,.36-1.34,1.08-.79-.39-1.36-1.48.43-.87-.31-.34.29-.37-.14-.89-.64-1.39-1.71-1.77-.26-.91-1.6-.84.15-.37-.37-.32-.72,0-.22.39-.44-.17.38-.27-.26-.29-1.32.1-.13-.83-1.18-1.91h-.28v-.59l-.9-.92-.58-.13-.42.36-.69-.5.07-.24-1,0-.2-.8-1.84-.51-.45-.78-.37.23-.45-.39-.23.26-.36-.54.16-.61-.25-.2-.49.22-.79-.67-1.22.16-.14.28.39.63-1.87.34-.2.42-.31-.31-2.46,1.18-.86.75h0l-1.64-.69-.34-.47-2.2-.17-.79-1.1.15-.37h.48l-.09-.58h0l1.55-.51,2.31-1.82,1.4-.23.68-1.69.59-.58.37,0,1.49-2.11-.17-3.08-.61-.08-.51-.5-.34.22-2-3.9h0l-2.7-4.78-.13-2.61h0l-.08-2.43Z" transform="translate(86.33 89.24)"/><path id="258f5d9d-7b78-48bb-8616-7c308f2e3007" data-name="PH-QUI" class="6c4a21bc-0a9d-48ed-b8d0-62e3471f33b9" d="M238.67,124.8l3.39.27,4.49,5.66,7.43-3.39,1.12.09h0l-1.52,1-5.22,6.12L240,141.86h0L236.69,139l-.64-5.68,3.28-1.37.3-2.09-1.63-.55Z" transform="translate(86.33 89.24)"/><path id="7a72feb3-dae8-4c7a-83ed-f33086bf50d1" data-name="PH-RIZ" class="6c4a21bc-0a9d-48ed-b8d0-62e3471f33b9" d="M234.87,179l0,.87-.6-1.41.16-1.66.39,1.74.56.25-.56.21Zm.48-4.16,0,0h0l0,0h0l0,0Zm-.12,0v0h0l.05-.08h0l-.05.06Zm0-.2h0l0,0h0v0Zm2-8.79.13,2.61,2.7,4.78h0l-1.17.41-1,.93-.35,1.43.34,1.36-.17.73.48.52-1.8,1.28-.08-.89.79-1.95-.3-1.18-.52-.53h-.5l-.07-.64-.61-.09-.41,1h-.34l-.08,1.48-1.18-2.38-.65-.47-.69.07h0l-.27-.88.37-.54-.18-.84.59-.19.1-.53-.65-.42.63-1.48-.39,0V169h0l1.45-1,.11-.53,1.73-.34,2-1.2Z" transform="translate(86.33 89.24)"/><path id="2ec6176c-c88e-4b98-83d1-6a6cfe97c2ec" data-name="PH-ROM" class="6c4a21bc-0a9d-48ed-b8d0-62e3471f33b9" d="M250.66,230.83l.57.73-.16.79-1-.72.11-.49Zm13.88-9.44,2.47.5,1,1.9-.37,1.68-1.1,1v.38l-.57-.67-1.08-.37-.48-1.13-2.08-.83-.58-.84.09-.53.75-.71Zm-6-2.78.28.17.23,1.36.46.42,0,.83L259,222l-.7-.27-.51-.95.29-.29-.4-.69.53-.09.39-1.13Zm-3.83-1.13.86.34.19.65-.74-.08-.17.39.39.85v1l-.63.92-.54,4.28-1.07,2,0,.83.28-.13.31.4-.21.22-.31-.21-.49.55-.22,1.33-.71-1,.15-.43-.55.09-.18-.75.21-1.15.17.94.31.19.66-1-.85-.69-.3.14v-.45l-.4,0-.12-.45-.38.25-.14-.73.38-.37-.24-.24.33-1.1,1-.37.42-.81.23-1.16-.54-1.76.21-.64.89-.55.81,0,1-.79-.06-.4Zm-.7-3.78-.55,1.24-.68-.05v-.39Zm-8.66-2.59.73.48-.47.78-.81-.79Zm8.58-.29.4.11-.22.9-.72.29-.12-.74-.45-.31Z" transform="translate(86.33 89.24)"/><path id="feabaf72-730c-4f0b-a052-69b5be15a4d8" data-name="PH-WSA" class="6c4a21bc-0a9d-48ed-b8d0-62e3471f33b9" d="M316.5,240.15l.63,0,.22.4.47-.14.11.36-.52.36.21.58-1-.18.08-.86-.42-.35,0-.57.23.36Zm-2.27-.76.17.57.4.15,0,.41.61-.32-.33.51.9.55-.44.6.18.43.24-.2,1,.2-.43.51.18.74-.36.4-.73-.44.32-.41-.9-.18-.1-.79.47.29.15-.26-.91-1-.28.22-.14-.8-.23.17.09-.63-.17-.24.3-.2-.31-.28Zm.45-.3.62.32L315,240l-.42-.3.12-.65Zm-2.49-4.17,0,.27.45,0-.15.46-.54-.45.2-.26Zm-4.41-.18.4.92-.37.2-.76-.26.14-.69Zm-2.64-.74.15.49-.63.85-.73.1,0-.73,1.19-.71Zm2.06-.69.31.28-.23.51-.53-.25v-.45l.46-.09Zm-4.52-2.13h.3v.55l-.51-.2-.89.84-.7-.35.52-.72,1.27-.12Zm3-4.64,1.62,0,1.25-1.2,3.6,2.15,1.65-1.12,2.93,1.66-.27,1,.59.85,1.12-2.65,1.54.57,3-1.22,1.09-.11h0l-.17,2.31-.76.49.06,4H325l1.41,3.25.28,4.08-1.39,1-.33.81.56,3.57,1.24.42.48.62-1.3,1.87.09,4.59h0l-.4.74-.61-.28-.32-1.95-1-2.14-1.81-.25-1.46.43-.64-.36-.13-.9.53-.7-.28-1.58-.46-.24-.09-.51-.42.11-.86-.5.07-.44v-.18l-.42-.26,0,1.05-.24-.23-.87.17-.44-.58.24-.17v-.3l.59-1,.31.49.51-.12.11-.32-.49-.12.09-.44,1.5.14.42-.29-.18-.31.64-.48-.25-1.26,1.25-1,.25-.49-.08-.54-.93-.45-2,.9-.52-.31-.12-.57-.53-.31,0-.49-1.9-1.15.06-.36.51-.22-.22-.38-.63-.1.13.25-.7,0,.29-.42-.17-.3.59-.22-1.25-.24-.29-.63.21-.11-.45-.51-.06-.17-1.14-1-.94-.31-1.54.05-1.74-1.69,0-.44-1.36-.94-.75-2Z" transform="translate(86.33 89.24)"/><path id="26c2ca04-b059-4729-9db8-788f91b62b34" data-name="PH-SAR" class="6c4a21bc-0a9d-48ed-b8d0-62e3471f33b9" d="M329.37,383.18l.7.36-.18,1.22-.31-.25-1.3.22-.06-.44-.43-.06.95-.9Zm1.83-1.35.48.62-.16,1.05-.49.74-.45-1.05.5-.47-.4-.26h.61l-.33-.3.24-.32Zm-24.6-16.29L310,367l.87.95,1.8.6,3,1.6,5.07.18.82-1.25v2.21l1.15.11h0l-.09.94-.5.45.27.47-.32.33h-3.41l-2.29-.68-4.15-2.16-.85,0-.58-.67-1.36-.18-2.09-1.45-1.68-.71h0Zm17.63-5.83,1.77.94,1.59-.72.72-1.11,1.64.48,1.39,2.07.15,1.25-.77.83,1,1.61.14,2.18.63.7-.07,1.14-1.23,3.39.17,1.3-.4.28,0,.63-1.69,3.57-2,1.47.31.45h0l-.63-.31.33-1.09-.49-1.4-1.11-.58-.47-1.12-.78-.14.14-.31-.36-.34.16-.83.6.29.33-.81-.15-.58,1.3-.69-.16-.41.58-1-.42-2.41-.73-.32h0l-.12-1.71.86-1.53,0-.74L322,362.6l.89-1.82h.62l.34-.94.34-.13Z" transform="translate(86.33 89.24)"/><path id="cbcb0848-4540-4341-94ea-4d165d6d5509" data-name="PH-SIG" class="6c4a21bc-0a9d-48ed-b8d0-62e3471f33b9" d="M288.59,295.14l.66.13.63,1.33.56.32-.67.76,1,1-.48.55-.92-.11-.4.54-.79.17-.65-.15-2.44-2.11.4-.71.69.24,1.35-.3.74-.57Z" transform="translate(86.33 89.24)"/><path id="014f8c8f-a279-45b1-8402-32d93441efc9" data-name="PH-SOR" class="6c4a21bc-0a9d-48ed-b8d0-62e3471f33b9" d="M296.43,207.47l.52-.06,1.15,1.31,1,.44.44.72.52-1.34.56-.36,1.24.18.21.3,0,.45-.15.12.22.27-.58.35-.14-.54-.21.19-.34,2-.58.55.21.41.48-.09.2,2-.56,1.79.1,1.43-.94.8.36,1-.57.28.32.39-.41.69-2.08-.2-1.2-1.27,0-.63-.4.21-.18-.51-.79-.38-1-4,.12-.21.64-.53-.11-.36,1.72.72.3-.72.86-.11.22.39.5-.31.56-1.21-.43-1-1.25.41-.63-.07-.44-.5-.81,0-.06.67v.26l-.52.38-.09.54-.42-.15-.18.67-.27-.34-.48.64-.76-.57,0,.54-.63.44-.14-.6.37-.26-.23-.34-.59.32-.05.11-.31.31-.46-1,.23.11.1-.28-.11-.15-.78.6.33.18-.22.44-1.44-.79-.72-.94-.44-.1-.2.27-1.11-1.2h0l2.13-1,1.24.48.94-.37,1.45,0,.79.89,2-1.27h1.07l.8-1.79h0l.22.27Z" transform="translate(86.33 89.24)"/><path id="a5d67fb4-d08a-4067-a84a-31afd1652c66" data-name="PH-SCO" class="6c4a21bc-0a9d-48ed-b8d0-62e3471f33b9" d="M306.6,365.54l-1.79-.63-.84-2,6-.16,1.17.42,1.13-1.9-.09-1-.46-.28,0-.72h-.27l-.16-.59.89-2.44.31-.16.39.65,1.74-1.63,1.91,3.16,8.25-.09h0l0,.59-.61.93h0l-.34.13-.34.94h-.62l-.89,1.81,4.44,1.59,0,.74-.86,1.54.12,1.7h0l-1.73-.17-.51,1.93-.91,1.48h0l-1.14-.11v-2.21l-.82,1.25-5.06-.18-3-1.6-1.81-.61L310,367Z" transform="translate(86.33 89.24)"/><path id="a036ab31-a488-4f1f-a230-367b1580b6c8" data-name="PH-SLE" class="6c4a21bc-0a9d-48ed-b8d0-62e3471f33b9" d="M323.72,264.82l1,1-.62,1,.61,1.39-.28,1,.81,1,.57-.21.42.53.22,1.67-.31.91-.78.28-2-.67.17,2.37-.24.25.79.66,1.11.12.72,2,.82,1.09-.2.55.59.81-.14.44-.81,0-.17-.79-.58-.33-.85-1.73-1.15-.55-.42-1.17.13-1.48-.88-.91-1.33-3.47-.38-.28-.9.17.42,2.72-.22,1,1.06,2.88L321,279l-2.08-1.75-.71-.19-.36-.73-2.55-.28-.47-.57.06-.78h0l.36.16,1.64-1.57L318,273l-.15-3.2,1.06-2.75h2.57l2.2-2.27Z" transform="translate(86.33 89.24)"/><path id="9f0c7c4c-87e5-47ce-bba2-08ebed47a4e4" data-name="PH-SUK" class="6c4a21bc-0a9d-48ed-b8d0-62e3471f33b9" d="M299.86,353.33l3.75-.08.4.67,5.19,0,1.57-1.65-.54-1.5,2.32-.5-.06.3.91.05-.67,1.92,1.81,0,.74,2.48.48.53,2-.15,2.69-1.46h0l2.66-.82h0l.71.55-.45.2,0,1,1.09,1.34.36,1.95h0l-8.25.09-1.91-3.16-1.74,1.63-.39-.65-.31.16-.89,2.44.16.59h.27l0,.72.46.28.09,1-1.13,1.9-1.17-.42-6,.16.84,2,1.79.63h0l-1,2.14h0l-.61.11-3.18-2.19-.4-1.41L300,363.12l-.63-1.53-.28-.21-.27.42-.46-1.06.15-.44v-.21l-.4-1.25.2-.23-.29-.12.11-.33.4.19L299,358l-.64-.22.38-1.68-.84-2.07.59-.74h0Z" transform="translate(86.33 89.24)"/><path id="b962c029-db07-46b0-b7bf-29c70207021f" data-name="PH-SLU" class="6c4a21bc-0a9d-48ed-b8d0-62e3471f33b9" d="M225.29,381.34l.39.79-.61.54-.16-.53Zm-.45.93-.59-.17.74-.84-.15,1Zm-.13-2.11.37.3-.24.77-.91.55-.29-.71.43-.77.64-.14Zm1.27-.41,1.25,1.06-.53.9-.56.26-.94-.84-.06-.43.2-.67.64-.28Zm5.05-2.18-.74.58-.64-.55,1.29-.29.09.26Zm-4.69-.43.5.23-.64.58h-1.43l.27-.81Zm3.11-.79.3.13-.15.36-.35-.19Zm-1.93-.45.32.9-1,.5-.06-1.08Zm5.19-2.11,1,.36.35.75-1,.49-.51-.18-.2-.6.37-.82ZM205.22,373l.53.54-.95-.21Zm.75.38,1.14-.37-.28.39-.82.17,0-.19Zm.6-1.6,0,.41,0,.27-.42-.22.15-.43.32,0Zm36.12-.83.25.55-.6.45-.28-.56.25-.27.1-.12.28-.05Zm-33.25.46-.31.05-.46-.49.23-.34.41.22.13.56ZM242,369.74v.32l-.78.4.47-1h.36l0,.25Zm-3.13-.59.36.44-.16.43-.91,0-.14-.44.52-.47Zm5.84,0,.36.4.85.13-1.38,1-.35-.21.77-.71-.39-.26Zm-5-.51.15.3-.35.29-.09-.49.29-.1Zm-7.81-.34,1,.31,1.19,1.85,1.67-.53.85.4,1-.08.15,0,.53-.1.57.36.16.82-.86.42-.06.83-.72-.3-1.53,1.39-.36-.29.26-.17-1-.37.21-.63-.2-.38-.94-.38-.3.43-.25-.2-.21.43-.55,0v.28l-1.2.42-.23.32L229.93,372l-1.92.91-1.38-.71-.14-.78,1.07-1.63,1.77-.64.46-.75,2.1-.07Zm15-.05,1.11,1.2,1,.47,2-.75-.87.79-1.26.46L247,369.16l-.46-.56.29-.35Zm-28-1.18.44.41-.31.35-.31-.32.18-.44Zm29.62-.07.25.63-.75,0-.08-.32ZM217,366.44l.2.23-.31.68-.86-.45Zm30.94-.09.31.63-.6.44-.23-.52Zm-19.38-.67.6.3-.13.36-.52.11Zm-7.06-2.6.29.36-.11.61-.69.65-.27-.39.37-.53.41-.7Zm4.71-.51.3.52-.77.25.11-.63.36-.14Zm-6.05-1.17-.41,3.28-1,.27-1.24-.34,0-.41.89.15.83-2.46.92-.49Zm2.6-1v.94l-.94-.18,0-.28,1-.48Z" transform="translate(86.33 89.24)"/><path id="44d0c627-dff2-4fc3-a0b4-432fe9c3cbb2" data-name="PH-SUN" class="6c4a21bc-0a9d-48ed-b8d0-62e3471f33b9" d="M334.61,285.35l.8.13-.29.26.17,1.07-.33-.12-.17-.95-.44.15.26-.54Zm9.14-.12.92.1v.45l-.82-.09-.58.7,0-.48-.81.31-.18-.56.36-.15,0-.36.59.67.53-.59Zm-2-.59-.08.56h.49l0-.27.21.41-.26.14.06.79.53.09.12.49-.53.9-.11,1.28-.55.19v-.35l-.78-.53-.36-.33.42-.26.09-.07-.07-.63.44,0-.25-.93.21-.17-.43-.4.34-.16-.16-.64.65-.09Zm-6.83-.77.56.87-.78-.35h-.2Zm1.73,0,.52.25-.33.65-.58-.26-.12-.64.4-.08.11.08Zm-5,0,.22.65.92-.08.28.39.4-.14-.22.39.53.49-.09.4.46.59-.21.35.2.49.08.21,1,.72.75-.08.57.42.62-.16,0,.6,2.39.56.66.5v.46l1,.09h0l-3.86,3.91h0l-.16-1.52-1.23-1-2.84-.52-1.64.06-.83.37h0l-1.42-5,.23-2.54.88-.59-.06-.71.49.3-.19.46.48-.07Zm3.33-2.79,0,1.24.34.29.68,0-2.22,1.07.11-.62-.36.26,0-.45,1-1.59.5-.16Zm-2.89.12.86,1.12-1-.56.13-.56ZM342.38,280l.26.4-.21.61-.55.61-.42.17-.2.24-.28-.13-.05-.27.17.16,1-1-.16-.15.5-.1-.09-.5Zm2.09-2.35,1.34,4.28-.2.3-.31.15,0,.08.53.39.42-.18.15.88h.46l-.11.49-1.13.88-1.43-.16-.6-.38-1.21-.94-.52-.53.23-.46.78,0-.76-.55.37-.53.17-.52.87-1.15.33-.67-.16-.54.74-.8Z" transform="translate(86.33 89.24)"/><path id="a8fc2128-8cbc-4d6e-a682-6eee5f57b4e2" data-name="PH-BAS" class="6c4a21bc-0a9d-48ed-b8d0-62e3471f33b9" d="M251.86,363.37l0,.51-.23.06-.52-.22.13-.46Zm-9.67-9-.13.26.67.38.26,1.17.52.55.07-.81.18-.37-1-.71Zm10.3,8.51.54,0-.28-.51Zm-.71-.22-.24-.51-.59.25.2.35.63-.09Zm7.3-7-.93.06-.7-.53-2.07-.09-.17-1.07-.9.08-.78-.87-.61.2-.36-.08-.64.22-1.53,1.48-.89.34-1.18-.54-.67.67-.23,1,.69.52.61-.11.64.67L249,358l.12.89.74.48.38.83.88.37,0,.53L253,361l3.26-.93.33-.33-.11-1.23.48-1.35.59-.33,1.49.1.55-.77-.49-.48Zm-7.16-2.3-.28-.2-.67.27-.21.73.51-.11.65-.69Z" transform="translate(86.33 89.24)"/><path id="d6c9b16e-06bf-4909-8001-41b3a540ef1e" data-name="PH-ZAS" class="6c4a21bc-0a9d-48ed-b8d0-62e3471f33b9" d="M272.93,326.71l1.06.1,2.62-1.92,2,.06v-1.27l.6-1.25.17-3,3.36.17.77.39h3.8l.32,3.88.88.47.76-.16,0,.41h0l.09.22.07.26,0,.38.58.51h0l-1.1,2.85h0l-1.28-.52-2.37.92-.85-.09.17.76-.24.29.58.12-.06.38.88.43-.1,1.36-.33.89-1.8.52.09,1.16-.73-.54-.44.59,1,.43,0,1,.34.75.38-.2.88.75-.31.55.36.83-.69,0-.15.33-.8-.39-.14-.53-1-.38-.21-.59-.83-.59.38-1.43-1.74-.19-1,.78.36.45-.49.44-.34-.37.18-.3-1.23-.43-.29-1,.58-.14,0-.33-.75-.51.55-.05.35.63.87,0,.48-.36-.44-1.12L278,333l.09-.27-.37-.17.4-.59-.15-.55-.52-.48-.4.66h0l-.28-2.4-3.86-.49v-2Z" transform="translate(86.33 89.24)"/></svg>